<svg version="1.2" xmlns="http://www.w3.org/2000/svg" viewBox="0 0 1920 1080" width="1920" height="1080">
	<title>LOGO-ai</title>
	<style>
		.s0 { fill: #000000 } 
		.s1 { fill: #808080 } 
	</style>
	<g id="Calque 2">
		<g id="&lt;Group&gt;">
			<path id="&lt;Path&gt;" class="s0" d="m456.5 661l154.9-268.3h-309.8z"/>
		</g>
		<g id="&lt;Group&gt;">
			<path id="&lt;Path&gt;" class="s0" d="m921.4 526.7c0 73.7-59.8 133.5-133.5 133.5-73.7 0-133.5-59.8-133.5-133.5 0-73.7 59.8-133.5 133.5-133.5 73.7 0 133.5 59.8 133.5 133.5z"/>
		</g>
		<g id="&lt;Group&gt;">
			<path id="&lt;Path&gt;" class="s0" d="m1463.6 392.6l-154.9 268.3h309.8z"/>
		</g>
		<g id="&lt;Group&gt;">
			<path id="&lt;Path&gt;" class="s0" d="m1114.7 526.8l115.8-66.9c-23.1-39.9-66.2-66.7-115.6-66.7-73.7 0-133.5 59.8-133.5 133.5 0 73.7 59.8 133.5 133.5 133.5 49.4 0 92.5-26.8 115.6-66.6z"/>
		</g>
	</g>
	<g id="Calque 1">
		<g id="&lt;Group&gt;">
			<path id="&lt;Path&gt;" class="s1" d="m508.1 639.8l154.9-268.3h-309.8z"/>
		</g>
		<g id="&lt;Group&gt;">
			<path id="&lt;Path&gt;" class="s1" d="m973 505.5c0 73.7-59.8 133.5-133.5 133.5-73.7 0-133.5-59.8-133.5-133.5 0-73.7 59.8-133.5 133.5-133.5 73.7 0 133.5 59.8 133.5 133.5z"/>
		</g>
		<g id="&lt;Group&gt;">
			<path id="&lt;Path&gt;" class="s1" d="m1515.2 371.3l-154.9 268.3h309.8z"/>
		</g>
		<g id="&lt;Group&gt;">
			<path id="&lt;Path&gt;" class="s1" d="m1166.3 505.6l115.8-66.9c-23.1-39.9-66.2-66.7-115.6-66.7-73.7 0-133.5 59.8-133.5 133.5 0 73.7 59.8 133.5 133.5 133.5 49.4 0 92.4-26.8 115.6-66.6z"/>
		</g>
	</g>
</svg>