<?xml version="1.0" encoding="utf-8"?>
<!-- Generator: Adobe Illustrator 26.2.0, SVG Export Plug-In . SVG Version: 6.00 Build 0)  -->
<svg version="1.1" id="Calque_1" xmlns="http://www.w3.org/2000/svg" xmlns:xlink="http://www.w3.org/1999/xlink" x="0px" y="0px"
	 viewBox="0 0 1920 1080" style="enable-background:new 0 0 1920 1080;" xml:space="preserve">
<g>
	<path d="M673.63,427L555.1,632.3L436.57,427H673.63 M428.4,427.17L428.4,427.17C428.4,427.17,428.4,427.17,428.4,427.17 M680,406
		H430.2c-16.5,0-23.25,11.69-15,25.98l124.9,216.33c4.12,7.14,9.56,10.72,15,10.72s10.88-3.57,15-10.72L695,431.98
		C703.25,417.69,696.5,406,680,406L680,406z"/>
</g>
<g>
	<path d="M826.5,428c30.05,0,58.3,11.7,79.55,32.95S939,510.45,939,540.5c0,30.05-11.7,58.3-32.95,79.55S856.55,653,826.5,653
		s-58.3-11.7-79.55-32.95S714,570.55,714,540.5c0-30.05,11.7-58.3,32.95-79.55S796.45,428,826.5,428 M826.5,407
		C752.77,407,693,466.77,693,540.5S752.77,674,826.5,674S960,614.23,960,540.5S900.23,407,826.5,407L826.5,407z"/>
</g>
<g>
	<path d="M1384.18,448.85l118.53,205.3l-237.06,0L1384.18,448.85 M1510.88,653.98C1510.88,653.98,1510.88,653.98,1510.88,653.98
		 M1384.18,422.12c-5.44,0-10.88,3.57-15,10.72l-124.9,216.33c-8.25,14.29-1.5,25.98,15,25.98l249.8,0c16.5,0,23.25-11.69,15-25.98
		l-124.9-216.33C1395.06,425.69,1389.62,422.12,1384.18,422.12L1384.18,422.12z"/>
</g>
<g>
	<path d="M1119.5,427.5c20.1,0,39.81,5.36,57.01,15.49c10.63,6.26,20.15,14.24,28.18,23.53l-95.88,55.36l-31.5,18.19l31.5,18.19
		l95.8,55.31c-8.02,9.27-17.53,17.22-28.14,23.47c-17.19,10.12-36.89,15.47-56.97,15.47c-30.05,0-58.3-11.7-79.55-32.95
		S1007,570.05,1007,540c0-30.05,11.7-58.3,32.95-79.55S1089.45,427.5,1119.5,427.5 M1119.5,406.5c-73.73,0-133.5,59.77-133.5,133.5
		s59.77,133.5,133.5,133.5c49.35,0,92.45-26.78,115.55-66.61l-115.74-66.82l115.8-66.86C1212.02,433.33,1168.9,406.5,1119.5,406.5
		L1119.5,406.5z"/>
</g>
</svg>
