<?xml version="1.0" encoding="UTF-8"?><svg xmlns="http://www.w3.org/2000/svg" xmlns:xlink="http://www.w3.org/1999/xlink" viewBox="0 0 1038.57 834.14"><defs><style>.e{fill:#2a4a35;}.f{fill:#fff;}.g{fill:#9384d1;}.h{fill:#ffdcb6;}.i{fill:#f7921c;}.j{fill:#c9a7eb;}.k{fill:#e5542a;}.l{clip-path:url(#b);}.m{clip-path:url(#d);}.n{fill:none;}.o{fill:#2ea39b;}.p{fill:#376284;}.q{fill:#2b4f63;}.r{fill:#ecc9ee;}</style><clipPath id="b"><rect class="n" x="91.41" y="120.49" width="750" height="500"/></clipPath><clipPath id="d"><rect class="n" x="91.41" y="120.49" width="750" height="500"/></clipPath></defs><g id="a"><g><rect class="h" x="91.41" y="120.49" width="750" height="500"/><g class="l"><g><g><path class="g" d="M180.44,684.53c11.01-21.77,22.18-43.76,38.96-62.74,16.78-18.98,39.96-34.94,67.38-40.11,10.49-1.98,21.42-2.35,31.6-5.28,36.48-10.49,49.18-47.25,70.18-74.47,33.73-43.73,104.01-67.01,161.88-48.43,23.96,7.69,44.37,21.43,66.59,32.2,38.31,18.58,82.58,28.36,126.79,28,42.5-.35,89.83-8.77,123.9,12.62,23.31,14.64,33.43,39.49,42.29,62.81,13.26,34.89,26.52,69.78,39.78,104.67,2.47,6.5,4.97,13.34,3.43,20.04-2.25,9.8-12.38,16.72-21.83,22.74-46.72,29.79-94.71,60.13-150.76,74.54-56.47,14.52-116.8,11.78-175.78,14.14-50.75,2.04-101.24,7.96-152.03,8.78-50.79,.83-102.75-3.7-148.95-21.5-26.59-10.24-50.6-24.61-74.42-38.89-12.69-7.61-25.72-15.51-33.94-26.65-14.15-19.18-11.28-43.61-15.07-62.47Z"/><path class="g" d="M43.11,125.75c37.48-9.44,78.02,4.42,108.05,28.76,30.03,24.33,50.98,58.02,68.51,92.46,13.23,26,29.81,56.55,58.85,59.42,22.74,2.25,43.82-15.37,52.51-36.5,8.69-21.13,7.56-44.92,4.97-67.62-2.59-22.7-6.51-45.68-2.93-68.25,4.19-26.43,18.56-52.3,13.05-78.49-5.32-25.29-28.69-43.66-53.55-50.71C267.7-2.24,241.27-.07,215.52,2.15c-20.09,1.73-40.18,3.47-60.28,5.2-15.12,1.31-30.73,2.75-44.06,10-14.23,7.74-24.32,21.25-33.21,34.79-12.13,18.48-22.93,37.84-34.86,73.61Z"/><path class="g" d="M71.37,256.82c23.89-3.85,48.66,4.08,68.54,18.21,19.88,14.13,35.28,34.06,47.71,55.35,15.31,26.23,26.93,55.43,48.11,76.92,21.19,21.49,56.46,32.87,80.89,15.39,17.22-12.33,23.99-34.76,29.64-55.52,23.33-85.71,46.68-171.48,65.45-258.37,6.35-29.42,13.87-61.72,37.68-79.33,19.03-14.07,44.04-15.25,67.49-15.91,49.51-1.39,99.03-2.79,148.54-4.18,5.12-.14,10.81-.08,14.55,3.51,5.28,5.06,3.69,13.88,1.69,21.01-6.21,22.17-12.62,44.77-25.32,63.8-30.05,44.99-86.97,59.72-131.94,88.75-53.09,34.26-89.98,89.33-120.91,145.35-30.93,56.01-57.78,115.05-97.63,164.77-6.69,8.35-13.81,16.48-22.43,22.68-19.2,13.81-43.65,16.67-66.96,19.12-37.04,3.89-77.02,7.16-109.04-12.35-34.61-21.09-50.85-63.6-58.41-104.19-7.57-40.59-9.09-82.99-25.03-120.93-7.27-17.32-17.48-33.49-22.01-51.76-4.53-18.28-1.89-40.26,14.24-46.16,6.35-10.12,22.59-11.29,30.25-2.17,4.92,5.86,6,14.14,5.74,21.87-.25,7.73-1.63,15.47-.75,23.15,.27,2.36,1.06,14.05,19.91,11.01Z"/><path class="g" d="M987.83,438.87c-11.52-31.36-49.86-44.04-83.98-45.61-34.12-1.57-69.77,3.73-101.45-8.3-28.54-10.84-50.79-35.96-57.79-65.25-7-29.29,1.42-61.99,21.89-84.93,17.58-19.71,42.27-31.54,64.57-45.93,22.29-14.38,43.96-33.85,48.8-59.46,3.52-18.57-2.51-37.57-11.5-54.05-7.42-13.6-18.37-27.04-33.91-29.78-14.18-2.5-28.6,4.7-39.63,14.05-33.35,28.26-44.12,73.64-66.41,110.88-21.04,35.15-52.46,63.03-79.81,93.79-27.34,30.75-51.75,67.23-53.51,107.66-2,45.95,29.23,90.84,73.37,105.47,54.32,18,116.65-7.46,171.37,9.38,30.2,9.29,54.66,30.48,82.26,45.53,27.6,15.05,63.42,23.45,90.45,6.48,21.06-13.23,31.24-41.17,23.35-64.09-7.89-22.92-33.07-38.59-48.08-35.85Z"/></g><g><path class="h" d="M422.86,216.35c.46-.35,.81-.78,1.04-1.31,1.02-2.63,1.98-5.28,2.94-7.94,6.12-17.05,12.05-34.16,18.01-51.27,3.34-9.72,6.43-18.45,9.13-27.08,.5,1.71,1.03,3.4,1.61,5.08,1.61,4.65,3.53,9.45,7.1,12.95,2.75,2.83,6.98,5.05,10.95,3.66,7.97-3.02,13.22-9.98,17.44-17.19,.07,.79,.13,1.58,.21,2.37,1.45,12.1,7.29,24.54,21.37,17.37,6.6-3.52,10.17-10.52,13.44-16.93,4.37-9.3,6.16-15.99,7.68-26.71,.31-2.51,.57-5.04,.75-7.57,2.79,3.15,5.94,6.26,10.2,7,3.58,.43,6.91-2.05,8.39-5.19,1.02-2.27,1.15-4.81,1.01-7.27-.53-7.39-3.58-14.35-7.4-20.62-.68-1.06-1.36-2.14-2.08-3.21,9.15,2.76,21.54,6.7,31.09,10.03,4.28,1.51,8.55,3.07,12.83,4.6,1.95,.5,4.2,2.02,6.19,1.29,2.68-.98,2.77-4.99,.12-6.09-13.7-4.79-27.36-9.73-41.26-13.92-5.11-1.58-10.22-3.12-15.36-4.58-.84-.24-1.68-.47-2.52-.71-.06-.04-.13-.08-.19-.12-2.11-1.26-4.03-.28-4.83,1.26-.62,1.11-.64,2.58,.19,3.61,.55,.65,1.24,1.15,2.1,1.27,1.63,1.04,3.38,3.05,5.87,6.46,3.73,5.53,5.06,7.7,7.4,14.25,1.69,5.32,1.98,10.66,.05,12.15-.15,.07-.42,.19-.69,.29h-.03s-.09,0-.13-.01c-.11-.04-.22-.07-.33-.12-2.87-1.07-7-5.7-10.57-11-.11-1.42-.25-2.83-.47-4.24-.74-3.41-.81-4.5-2.53-8.63-.83-1.55-1.7-3.25-3.24-4.18-1.79-1.16-4.32-.74-5.69,.87-2.54,3.32-.14,7.72,1.38,10.99,1.41,2.87,3.02,5.64,4.78,8.3v.07c.07,6.23-.63,12.08-2.04,19.71-1.66,8.83-4.61,16.73-9.99,25.75-1.54,2.52-5.32,7.68-10.01,8.54-1.78,.1-3.66,.99-5.98-2.94l-.02-.04c-.05-.09-.1-.18-.14-.27-1.52-3.44-2.02-5.61-2.36-7.34-.82-5.23-1.11-10.52-1.2-15.82,2.18-4.66,3.9-9.13,4.96-13.17,3.08-11.21,5.3-25.6,1.35-36.78-1.14-2.76-2.86-6.5-6.33-6.44-3.08,.3-3.35,3.9-3.64,6.36-.24,.85-.24,1.81-.43,2.66-.32,2.23-.61,4.46-.86,6.7-.81,8.75-1.24,17.54-1.47,26.33-.13,4.48-.2,8.97-.14,13.46-2.65,5.38-5.68,10.7-8.1,13.85-1.42,1.88-2.95,3.7-4.62,5.36l-.03,.03c-3.08,2.52-4.01,3.16-6.46,4.06-.05,0-.1,.02-.15,.02-.16-.02-.31-.04-.47-.07-.06-.02-.14-.05-.24-.08-.46-.17-.91-.37-1.35-.6-.28-.19-.88-.6-1.14-.88-1.55-1.48-.57-.31-2.07-2.26-.29-.36-1.05-1.65-1.38-2.21-1.44-2.77-2.42-5.75-3.41-8.7-1.73-5.6-2.26-7.03-3.03-12.98-.06-.59-.1-1.18-.13-1.77,.69-3.14,.85-6.41-2.46-7.19-3.63-.36-4.29,3.28-4.14,7-.1,.41-.2,.83-.28,1.24-2.87,10.75-7.21,22.88-11.5,35.4-5.88,16.91-11.76,33.82-17.78,50.68-1.01,2.82-2.03,5.63-3.08,8.43-.32,1.08-1.02,2.09-1.01,3.24-.22,2.63,3.14,4.36,5.21,2.71Zm75.21-138.15c-.03-1.52,.24-3.07,.29-4.6,.27,.7,.54,1.52,.78,2.43,1.58,6.99,.68,17.63-1.87,27.45,.27-9.46,.52-17.11,.8-25.27Z"/><path class="p" d="M552.39,113.94c1.2,2.15,2.92,3.97,4.63,5.72,2.78,2.15,5.65-1.27,3.4-3.91-.98-1.5-1.94-3.02-3.07-4.41-.41-.49-.73-1.12-1.34-1.4-2.5-1.62-5.42,1.64-3.63,4Z"/><path class="p" d="M560.1,106.65c1.9,.77,3.94,.82,5.89,1.37,3.06,1.04,4.93-3.07,2.01-4.53-2.24-1.19-1.3-.59-3.3-1.79-1.02-.51-2-1.38-3.2-1.32-3.55-.21-4.65,4.89-1.41,6.27Z"/><path class="p" d="M542.54,122.7c.98,2.01,4.18,1.42,4.47-.78,.1-1.33,.49-2.63,.58-3.96,.45-4.39-6.08-4.57-5.85-.16-.02,1,.24,1.97,.38,2.96,.11,.65,.03,1.38,.43,1.94Z"/><path class="p" d="M463.08,163.5c.8-1.21,1.3-2.57,1.95-3.86,.61-1.06,1.05-2.31,.53-3.5-.98-2.69-5-2.77-6.09-.12-.69,2.01-1.82,3.96-1.82,6.13,.23,2.7,3.96,3.62,5.43,1.35Z"/><path class="p" d="M482,158.4c.93,1.64,1.85,3.3,2.98,4.82,1.98,2.88,6.3,.55,4.93-2.68-.81-2.01-1.95-3.88-2.93-5.82-.47-.77-.59-1.77-1.29-2.38-1.86-2.12-5.56-.36-5.2,2.42,.2,1.33,.84,2.49,1.5,3.64Z"/><path class="p" d="M471.6,167.6c1.09,1.5,3.5,1.55,4.63,.07,.79-.97,.63-2.19,.55-3.34-.11-1.38-.28-2.76-.5-4.12-.09-1.06-.39-2.15-1.28-2.81-2.11-1.75-5.47,.1-5.13,2.82,.4,2.48,.63,5.12,1.74,7.39Z"/></g><g><g><path class="g" d="M237.64,349.66c1.23-.13,2.13-1.11,2.62-2.19,.63-1.22,1.18-2.48,1.76-3.73,2-4.34,4.03-8.67,6.07-13,5.63-11.99,11.33-23.94,17.18-35.82,4.35-8.88,8.71-17.75,12.99-26.66,2.16,26.31,4.23,52.64,5.46,79.01,.42,6.38,.34,12.82,1.15,19.16,.72,2.87,4.89,3.36,6.16,.63,1.06-3.4,1.13-7.07,1.71-10.58,1.1-8.68,2.1-17.38,3.08-26.07,1.6-14.29,3.16-28.59,4.38-42.92,.4-4.55,.7-9.11,.94-13.68,3.71,9.6,7.24,19.27,10.79,28.92,3.91,11.08,8.12,22.08,11.2,33.43,.43,1.56,.52,3.49,2.17,4.28,2.15,1.19,5-.57,4.84-3.05-2.32-14.96-4.17-29.99-6.22-44.99-.85-6.37-1.79-12.73-2.85-19.07-.28-1.97-.65-3.92-1-5.89,6.93,7.42,13.66,15.03,20.9,22.14,3.2,3.4,8.11-1.07,4.9-4.48-8.21-7.83-15.55-16.54-23.42-24.71-1.74-1.62-3.05-4-5.42-4.74-2.1-.59-4.16,1.21-4.4,3.27-.32,4.17,.93,8.3,1.47,12.41,1.71,10.12,3.11,20.29,4.47,30.47-5.18-14.27-10.44-28.52-16.16-42.58-.47-.97-.74-2.12-1.58-2.85-1.31-1.19-3.5-1.18-4.72,.15-.98,1.07-.98,2.52-1.02,3.88-.06,1.58-.1,3.16-.15,4.75-.28,8.61-.84,17.21-1.61,25.79-.96,10.5-2.42,24.48-4,38.46-1.46-24.33-3.39-48.63-5.51-72.92,.13-.63,.07-1.23-.15-1.77v-.06c-.11-3.29-4.65-4.35-6.21-1.41-.28,.53-.4,1.09-.38,1.68,.01,.13,.02,.26,.03,.38-.18,.37-.35,.74-.53,1.1-.86,1.8-1.7,3.61-2.56,5.41-3.06,6.44-6.18,12.86-9.32,19.26-5.87,12.08-11.82,24.15-17.61,36.28,4.51-16.2,9.95-32.13,15.61-47.97,.73-1.51,.35-2.96-.54-3.88-.97-1.79-3.65-2.61-5.34-.79-2.34,2.11-9.88,7.35-14.62,10.97-1.83,1.38-3.66,2.76-5.48,4.13,6.02-5.19,12.11-10.31,18.09-15.53,4.54-4.04,13.52-11.06,15.47-13.43,.13-.18,.27-.36,.41-.53,2.7-1.41,2.14-6.23-1.71-6.2-18.59,1.65-39.95,2.27-59.08,3.32,10.1-2.79,20.31-5.19,30.44-7.83,8.04-2.16,19.47-4.44,24.75-6.5,.54-.22,1.1-.39,1.63-.63,.65-.21,1.21-.68,1.54-1.29,.05-.1,.1-.2,.14-.3,1.56-1.9,.61-5.48-2.65-5.44-11.23-2.1-31.17-8.08-45.33-11.73-4.27-1.2-8.58-2.28-13.02-2.53-.13-.01-.27-.03-.4-.04-1.36-.14-2.64,1.03-2.56,2.42,.03,.92,.66,1.77,1.52,2.1,.29,.15,1.55,.7,1.94,.89,3.98,1.69,4.65,1.8,9.36,3.12,6.1,1.64,12.2,3.28,18.29,4.93,6.09,1.65,12.17,3.35,18.29,4.93-14.73,3.67-29.48,7.29-44.11,11.38-6.08,1.7-12.14,3.51-18.02,5.84-1.5,.6-3,1.23-4.45,1.96-1.04,.5-2.09,1.28-2.32,2.47-.45,2.8,1.9,3.88,4.33,3.79,.37,0,.44,0,.39,0,.07,0,.13,.01,.2,.01,3.14-.06,6.28-.22,9.42-.34,9.67-.56,19.35-1.06,29.03-1.48,10.54-.48,21.09-1.01,31.62-1.75-12.16,10.31-24.26,20.7-36.08,31.39-7.58,6.89-18.69,17.42-22.81,23.42-1.01,1.85,.02,4.34,2.11,4.79,1.29,.3,2.53-.37,3.62-.99,6.59-4.45,12.86-9.36,19.3-14.02,6.78-5.01,13.47-10.15,20.24-15.19,2.47-1.84,4.95-3.67,7.43-5.49-.78,2.23-1.57,4.46-2.34,6.69-5.68,16.08-10.65,32.42-14.53,49.03-.94,4.02-1.83,8.05-2.58,12.11-.18,.69-.42,2.74-.45,2.99-.05,1,.23,2.01,.99,2.7,.71,.68,1.83,1.05,2.78,.82Z"/><path class="q" d="M233.87,346.14h0s0,.03,0,0Z"/><path class="q" d="M233.87,346.13c0-.06,.02-.21,.06-.52-.03,.17-.05,.34-.06,.52Z"/></g><path class="g" d="M271.03,336.58v-.03c.23-.66,.25-1.51,.42-3.57,.39-4.19,.5-7.69,.8-11.08,.42-4.05,1.14-8.06,1.59-12.1,.51-4,.56-4.49,.9-8.52-.01-1.2,.44-2.52-.07-3.65-.88-2.21-4.33-1.84-4.79,.49-.88,7.44-1.91,17.29-2.08,21.36-.49,5.24-1.25,10.45-1.64,15.7-.04,.27,.02,.83,.07,1.17,0-.05-.01-.09-.02-.15,0,.64,.3,1.26,.76,1.7,1.35,1.36,3.76,.44,4.07-1.32Z"/><path class="g" d="M318.08,364.92c.05-.23,.06-.45,.04-.68,0-.14,0-.28,0-.43-.12-3.02,.03-2.47-.35-4.95,.04,.24,.08,.48,.12,.72,0-.04,0-.08-.01-.12-1.49-10.73-4.03-25.64-6.17-38.69-.2-1.13-1.01-5.84-1.12-6.54-.07-.57-.19-1.13-.3-1.7-.03-.79-.3-1.58-.89-2.12-1.73-1.7-4.84-.3-4.69,2.14-.11,3.51,.63,6.99,1.04,10.46,.84,5.48,1.66,10.96,2.61,16.42,1.42,7.85,3.22,20.21,5.3,25.61,.58,2.25,3.95,2.16,4.43-.13Z"/><path class="g" d="M211.44,337.19c1.02-.44,1.04-.81,1.22-.98,.82-.97,1.64-1.94,2.44-2.93,7.27-9.01,12.71-17.25,20.91-28.84,1.9-2.67,2.58-3.68,5-6.96,.63-1.02,1.68-1.8,2.11-2.91,1.14-2.78-2.63-5.1-4.66-2.9-5.2,5.86-9.6,12.39-14.11,18.79-5.41,7.76-10.69,15.64-15.19,23.97-.84,1.45,.7,3.32,2.29,2.77Z"/><path class="g" d="M182.29,287.29c.61,.09,1.23,.05,1.75-.3-.02,0-.33,.15-.5,.23,.75-.34,1.49-.69,2.23-1.06,13.87-6.93,24.84-11.34,40.86-19.22,3.02-1.44,8.36-4.02,9.4-4.46,.97-.53,2.21-.55,3.07-1.27,2.23-1.7,.28-5.35-2.4-4.5-12.3,4.79-30.05,13.38-45.2,21.33-2.57,1.34-5.2,2.56-7.8,3.85-.93,.55-2.16,.82-2.8,1.74-1.05,1.26-.19,3.37,1.39,3.66Z"/><path class="g" d="M185.64,234.24c11.2-.77,22.4-1.62,33.63-2.02,3.36-.14,6.71-.26,10.07-.37,1.19-.16,2.54,.24,3.64-.24,2.46-1.02,1.55-4.83-1.11-4.7-7.88-.07-15.76,.6-23.63,1.02-7.71,.53-19.44,1.33-25.1,2.23-1.77,0-2.68,2.37-1.35,3.55,1.05,.92,2.57,.46,3.85,.52Z"/></g><g><path class="p" d="M589.73,420.1c-.04,.09-.07,.18-.11,.27,.06-.11,.16-.3,.21-.48-.03,.07-.07,.14-.1,.21h0Z"/><path class="g" d="M535.2,220.39c1.31,2.58,2.66,5.15,4.05,7.69,1.76,6.37,5.02,15.32,7.78,23.39,4.97,14.98,9.99,29.98,13.69,45.33,3.8,15.28,2.51,27.87-9.97,28.65-6.73,.3-13.85-2.77-21.75-5.73-1.66-.53-3.42-1.62-5.18-1.55-.29-.11-.59-.22-.88-.3-.76-.36-1.74-.32-2.38,.25-.74,.49-1.05,1.53-.83,2.37,.19,.57,.51,1.09,1.06,1.39,.03,0,.03,0,.03,0,.1,.07,.21,.14,.32,.21,.27,.91,.93,1.71,2.05,2.01,.69,.24,1.38,.48,2.07,.74,.28,.17,.56,.35,.82,.54,2.73,1.8,5.55,3.44,8.23,5.31,5.5,3.54,11.72,9.78,15.13,15.34,2.97,5.26,3.8,8.22,1.8,11.65-4.42,6.92-18.44,12.48-28.07,15.74-4.72,1.65-11.23,3.14-14.01,3.56-1.42,.52-1.82,1.96-1.44,3.16-.41,.42-.62,1.04-.44,1.64,.63,1.89,2.35,1.15,3.77,.82,1.34-.3,2.7-.5,4.06-.7,3.77-.54,10.85-1.01,17.38-1.36,4.64-.27,9.28-.55,13.93-.75,4.35-.17,8.74-.43,13.06,.2,5.4,.7,14.23,4.22,18.35,8.9,1.71,1.89,1.8,1.97,3.34,4.98,1.29,2.71,1.85,3.94,2.5,7.89,.15,1.46,.24,2.93,.18,4.4-.06,1.72-.18,3.43-.39,5.14-.6,4.13-1.54,8.21-2.42,12.29-.18,.82-.35,1.71,.13,2.46,.14,.27,.34,.49,.56,.66,.96,2.87,5.43,2.71,5.97-.52,.5-1.97,1.16-3.91,1.93-5.8-.08,.13-.1,.12,.11-.27,.04-.1,.08-.2,.12-.3,0,.03-.01,.06-.02,.09,.38-.83,.78-1.66,1.22-2.45,.15-.39,1.18-1.89,1.5-2.37,2.57-3.06,4.73-3.41,6.2-3.04,6.73,1.41,15.6,19.3,21.59,30.23,1,1.9,2.17,4.11,3.22,6.16,.6,1.66,1.25,3.31,1.98,4.92,.61,1.23,1.04,2.71,2.29,3.45,1.18,.71,2.8,.5,3.76-.49,2.2-2.32-.18-5.45-1.09-7.85-.42-.86-.84-1.71-1.27-2.56-.28-.85-.59-1.84-1-3.1-1.89-6.98-3.03-11.55-.65-15.08,1.22-1.33,.73-.82,1.94-1.66,2.31-1.19,1.66-1.08,4.55-1.6,.35-.03,.85-.06,1.15-.05,1.81,.03,3.89,.49,7.19,1.79,7.5,3.03,20.44,11.95,29.37,18.19,8.05,5.68,18.7,12.91,24.47,17.55,1.42,1.5,2.89,3.31,5.09,2.82,1.6-.39,2.66-2.19,2.21-3.78-.51-1.57-1.93-2.55-3.13-3.6-.83-.85-1.63-1.71-2.45-2.57-10.48-11.33-18.95-21.14-26.95-32.64-5.81-8.38-8.15-14.96-4.21-18.49,.15-.09,.32-.2,.49-.29,.35-.1,1.03-.3,1.56-.41,.24-.01,1.55-.12,2.03-.09,3.26,.15,2.71,.16,6.25,.87,11.51,2.5,25.47,9.55,30.97,11.66,4.78,1.95,7.89,2.89,12.14,4.71h0c1.48,.7,2.95,1.42,4.41,2.16,.78,.33,1.48,.92,2.32,1.07,1.19,.26,2.32-1.04,1.97-2.2-.13-.54-.52-.89-.97-1.17,.62-1.52,.13-3.51-2-4.18-5.83-3.15-15.74-11.23-23.15-18.85-7.29-7.71-12.75-14.53-17.81-21.91-8.6-12.53-15.08-24.25-18.84-37.3-3.71-12.42-3.02-21.02-.59-33.04,1.35-7.23,2.84-14.45,4.77-21.55,.61-2.37,1.41-4.68,2.14-7.01,.67-.89,1.32-1.79,1.94-2.71,.49-.82,1.23-1.6,1.3-2.6,.26-1.47-.52-2.6-1.61-3.15-.64-.95-2-1.34-3.04-.72-1.05,.79-1.09,1.24-2.33,3.09-.68,1-1.2,1.96-1.64,2.97-7.21,9.67-19.15,20.88-27.01,24.23-2.99,1.21-6.05,1.7-7.12,1.72-3.01,.05-2.14,.16-5.26-.58-4.92-1.57-7.26-3.29-10.01-8.17-.63-1.32-.4-.62-1.18-3.15-.44-1.56-.74-3.15-.96-4.76-.16-1.42-.27-2.85-.31-4.29,.02-.43-.07-.83-.26-1.21-.11-.34-.29-.63-.51-.88,.16-.38,.22-.8,.14-1.21-.07-1.21-1.21-2.14-2.4-2.17-.39,0-.76,.09-1.11,.25-1.06,.29-.92,.38-1.62,.65-2.47,1.02-2.01,1.01-6.83,2.69-5.05,1.68-7.4,1.86-10.47,1.31-8.16-1.49-11.79-5.43-18.7-12.2-8.61-9.16-13.86-15.89-20.67-26.14-4.57-7.01-8.53-14.39-12.77-21.6-1.91-3.14-6.67-.46-4.89,2.84Zm32.36,47.55c7.68,8.3,16.41,16.38,28.49,15.97,3.16-.11,6.17-1.16,9.11-2.27,1.31-.57,2.71-1.03,4.01-1.65,.08,.7,.18,1.41,.2,2.08,.55,6.55,2.85,13.17,7.88,17.63,5.21,4.55,12.59,6.52,19.36,5.06,9.65-1.86,17.26-8.72,24.22-15.25,.7-.67,1.37-1.37,2.05-2.07-1.17,4.9-2.17,9.83-3.1,14.78-1.04,5.59-2.07,11.21-2.41,16.89-.32,10.35,2.44,20.57,6.24,30.12,4.38,10.95,10.5,21.1,17.26,30.73,6.97,9.83,14.74,19.15,23.65,27.28-2.42-1.07-4.86-2.09-7.3-3.12-8.2-3.31-26.52-11.15-34.28-5.21-2.22,1.6-3.5,4.26-3.98,6.91-1.44,9,5.01,16.92,9.84,23.88,2.82,3.82,5.75,7.56,8.76,11.23-10.92-7.36-27.89-20.66-40.04-22.5-6.09-.95-13.12,1.84-16.05,7.44-.52,1.11-.87,2.25-1.09,3.41-2.3-4.12-4.71-8.19-7.38-12.09-3.96-5.71-9.53-12.87-17.37-11.26-2.79,.63-5.11,2.2-6.99,4.24,.46-3.62,.59-7.26,.12-10.9-.8-4.97-2.97-9.85-6.37-13.59-3.66-3.99-8.72-6.31-13.74-8.1-6.12-1.97-12.59-2.1-18.97-2.07-5.42-.03-10.83,0-16.24,.29,5.22-2.03,10.27-4.48,14.85-7.72,4.06-2.98,8.3-6.91,9.19-12.09,1.38-9.26-6.53-17.44-12.78-23.28-.77-.66-1.56-1.33-2.37-2,2.4,.54,4.83,.9,7.33,.93,9.93,.21,17.4-6.46,18.76-16.23,1.34-9.21-1.25-18.46-3.56-27.32-3.09-11.16-6.76-22.15-10.32-33.17-.58-1.75-1.14-3.41-1.67-5,4.5,6.31,9.37,12.35,14.68,18.02Z"/></g><g><g><path class="j" d="M200.84,562.02c-6.69-10.36-15.42-23.83-26.03-27.84-8.83-2.8-17.98,0-23.22,7.75-.8,1.16-1.49,2.49-2.09,3.91-1.62-6.93-3.95-13.72-7.85-19.72-4.75-8.21-14.43-13.62-23.95-11.47-9.63,2.13-18.72,6.72-26.11,13.25-2.8,2.69-5.47,5.55-7.95,8.57,.76-3.51,1.43-7.04,1.84-10.61,1.29-11.41,.36-23.89-11.8-28.78-3.96-1.52-8.33-.91-12.42-.29-3.66,.63-7.22,1.64-10.7,2.9,6.92-7.43,14.19-16.46,14.6-26.89-.25-5.61-3.23-10.82-6.95-14.89-1.98-2.09-4.25-3.84-6.68-5.35,4.51,.14,9.02,.14,13.52-.3,8.41-.9,19.7-3.58,22.23-12.88,.84-3.17,.22-6.47-1.04-9.45-.71-1.58-1.26-3.67-2.61-4.78-2.7-2.27-6.63,1.07-4.92,4.14,1.6,3.19,1.25,2.37,2.17,5.35,.08,.32,.14,.64,.2,.96,0,.17,.01,.4,0,.68-.01,.34-.05,.68-.08,1.02-.08,.34-.24,1.02-.41,1.36-1.18,3.59-9.11,6.36-15.23,6.99-6.4,.63-12.84,.4-19.26,.09-5.8-.34-8.64-.23-13-1.4h0c-2.71-.82-5.19,2.27-3.78,4.75,.45,.85,1.19,1.28,2,1.59h.02c.54,.21,1.11,.37,1.65,.55,1.72,.59,3.41,1.26,5.09,1.94,9.44,3.82,18.48,9,20.45,18.71,.9,6.73-6.78,17.69-15.21,25.89-2.4,2.46-4.79,4.93-7.32,7.26-.74,.65-1.47,1.3-2.21,1.95-.21,.18-.44,.34-.64,.53-.14,.11-.28,.21-.4,.3-.36,.24-.73,.46-.96,.85-1.4,1.53-.45,4.27,1.53,4.75,.77,.17,1.58,.13,2.26-.26h0c.28-.14,.55-.29,.82-.45,.26-.14,.3-.19,.23-.19,.41-.19,.8-.46,1.17-.74,6.87-4,14.8-7.16,24.91-8.74,2.19-.22,3.19-.58,6.85-.31h.03c.74,.14,1.46,.33,2.16,.59,2.74,1.47,2.77,1.63,4.11,2.91,1.07,1.32,1.33,1.73,2.44,4.35,.41,1.25,.7,2.54,.88,3.84,.02,.16,.04,.35,.06,.53,.03,.43,.07,.86,.09,1.29,.12,3.54-.13,7.1-.54,10.62-.78,5.18-2.01,10.28-3.16,15.39-1,4.12-1.8,7.76-2.33,10.85-.03,.07-.06,.13-.09,.2-.55,1.03-.79,2.35-.42,3.44-.02,.24-.05,.49-.07,.72,.2,2.59,3.79,3.03,4.85,.89,.71-.42,1.27-1.08,1.48-1.91,3.15-8.57,13.48-21.77,20.93-26.87,5.5-3.81,10.65-6.12,15.14-7.47,4.43-1.16,4.95-1.6,8.78-1.25,5.06,.85,9.89,3.83,13.56,11.05,4.04,7.06,5.08,12.98,7.29,21.96,.54,2.44,1.17,5.53,1.58,8.01-.08,2.16-.03,4.06,.13,5.51,.32,2.01,2.82,3.17,4.46,1.85,1.16-.71,1.26-2.2,1.36-3.43,.01-.19,.02-.27,.01-.3,0-.05,.01-.1,.02-.15,.03-1.01,.01-1.99-.03-2.96,.16-1.15,.36-2.47,.63-4.16-.01,.13-.06,.46-.09,.63l.02-.09c.29-1.86,.66-3.71,1.09-5.54,1.21-4.3,1.28-4.78,3.25-7.9,3.29-4.62,9.18-7.3,16.5-4.61,.04,.02,.06,.02,.09,.04,.74,.33,1.45,.71,2.16,1.1,3.01,1.77,2.67,1.68,4.87,3.24,5.78,5.32,8.45,9.34,12.3,15.35,.86,1.4,1.63,2.85,2.46,4.27,.63,1.08,1.21,2.38,2.54,2.69,3.34,.68,4.88-2.86,2.78-5.39Z"/><path class="p" d="M152.78,558.87c-.02,.14-.02,.11,0,0h0Z"/></g><g><g><path class="p" d="M78.76,415.11v-.03h-.01v.03Z"/><g><path class="p" d="M265.58,494.43c-.1,.04-.1,.04,0,0h0Z"/><path class="j" d="M250.17,546.25s.03-.03,.04-.05c1.06-1.81-1-3.06-1.96-4.33-.41-.49-.81-1-1.2-1.51-2.88-4.19-3.98-7.1-4.85-9.13-2.26-5.42-4.39-9.66-4.45-12.92,.2-12.47,8.39-17.72,21.25-21.82,2.34-.85,4.78-1.42,7.11-2.28-.26,.11-.43,.18-.52,.21,.09-.03,.26-.09,.51-.16,1.04-.44,2.29-.45,3.19-1.16,2.36-1.6,1.09-5.14-1.38-5.45-.67-1.27-2.11-2.15-3.69-1.73-5.68,1.56-8.62,1.51-15.27,1.67-6.88-.01-12.34-1.3-16.61-3.18-4.79-2.44-6.21-3.15-9.22-6.36-2.43-2.59-3.76-9.18-3.09-12.69,.31-2.09,1.01-4.08,1.83-6.02,.94-2.19,1.95-4.34,3.06-6.45,1.49-2.85,3.16-5.6,5.05-8.21,.37-.5,.75-.99,1.13-1.48-.19,.23-.27,.3,.12-.16h0c.07-.09,.13-.18,.2-.26-.04,.06-.09,.12-.13,.18,.37-.45,.83-.85,.99-1.42,.68-1.33,.17-2.81-.84-3.73-.98-1.6-3.24-2.44-5.11-.74-2.27,2.36-2.95,2.53-6.66,4.81-3.6,1.89-3.27,1.84-7.03,2.82-2.75,.33-2.24,.67-6.02-.57-6.45-3.12-5.8-10.51-2.76-23.53,.24-1.2,.85-2.43,1.09-3.65v0c.08-.42,.12-.83,.08-1.25-.36-3.55-5.41-3.87-6.33-.42,0,.03-.02,.06-.03,.08-.07,.17-.12,.34-.19,.51-1.82,4.63-9.14,16.62-11.8,19.68-3.15,3.98-7.68,7.67-9.91,9.06-5.95,4.02-13.03,4.94-17.83,4.38-3.51-.78-3.02-.52-5.78-2.38-.95-.83-1.82-1.75-2.6-2.74-4.7-7.11-4.88-16.94-5.56-26.74-.57-10.63-.12-21.27,.65-31.87,.22-3.11,.46-6.21,.75-9.31,.06-1.42,.41-2.87,.3-4.28,.06,.24,.09-.52,.11-1.26,.08-.38,.17-.76,.25-1.14,.18-1.5,.9-3.14,.3-4.6-.34-.97-1.02-1.57-1.8-1.86-.84-.41-1.88-.35-2.68,.12-1.04,.48-1.85,1.47-1.86,2.87-.01,.08-.02,.14-.03,.2,0,.06-.02,.13-.03,.22-.51,2.9-1.25,5.76-2.15,8.57-.63,1.9-1.36,3.75-2.15,5.59-3.6,7.68-7.92,15.06-12.2,19.58-6.37,6.82-15.07,9.52-23.19,10.27-7.77,.59-12.54,.74-18.87-1.69-2.97-1.17-13.64-8.39-17.52-11.02-1-.76-2.57-.48-3.21,.64-.1,.24-.17,.45-.22,.65-1.69,1.23-2.2,4.05,.17,5.55,.1,.05,.19,.11,.28,.18,2.33,2.09,4.64,4.23,6.75,6.54,1.5,1.77,3.01,3.54,4.48,5.33-.15-.2-.3-.41-.45-.61,1.33,1.72,.8,1.44,1.7,2.12,1.41,1.29,3.92,.41,4.37-1.41,.1-.48,.12-.98,0-1.45-.03-.06-.05-.13-.07-.19,.03,.07,.05,.13,.07,.19-.05-.21-.12-.43-.24-.63,0,.02,.01,.04,.02,.06-.06-.16-.14-.31-.24-.44-.14-.21-.28-.42-.42-.63,5.82,2.79,12.08,3.84,18.92,3.6,7.91-.32,16.01-1.5,23.04-5.36,7.33-3.93,12.78-10.42,16.95-17.5,.66-1.11,1.31-2.24,1.94-3.37-.15,2.45-.29,4.91-.39,7.36-.35,8.95-.14,17.92,.63,26.84,.87,10.61,2.8,23.51,13.34,28.78,5.28,2.54,11.38,2.1,16.98,.99,8.12-1.75,15.06-6.97,20.56-13.02,1.85-2.18,3.57-4.47,5.2-6.82,.04,5.58,1.82,10.83,7.05,14.18,5.33,3.46,11.64,2.72,17.19,.32-.76,1.45-1.49,2.92-2.17,4.41-1.47,3.32-3.07,6.66-3.54,10.3-1.19,7.8,1.38,16.68,7.97,21.42,7.37,5.87,16.46,8.24,25.72,8.58-2.92,1.41-5.68,3.1-8.11,5.28-5.59,5.23-8.68,13.22-7.79,20.85,.35,3.12,1.68,6,2.86,8.87,1.52,3.65,3.88,7.42,5,8.86l.02,.03c-1.09-.64-2.18-1.28-3.26-1.93-4.82-2.81-5.69-3.06-10.48-5.36-6.03-2.6-12.81-6.09-20.76-3.78-5.8,1.77-9.74,7.57-11.39,15.01-1.33,7.54-.37,15.51,2.43,22.61,.52,1.36,1.31,2.57,2.25,3.68,3.1,3.04,7.66-1.38,4.74-4.58-1.8-2.15-3.94-11.08-3.36-17.54,.15-2.38,.34-3.22,1.51-6.6,.71-1.56,1.59-3.04,2.61-4.42,.09-.09,.19-.21,.32-.34,3.41-3.68,8.36-3.9,15.32-1.52,8.41,2.84,18.12,11.07,25.56,15.8,.24,.15,.7,.36,1.01,.49-.08-.03-.16-.07-.27-.11,.7,.42,1.56,.54,2.35,.35,1.68-.38,2.54-2.01,2.35-3.52Z"/></g></g><path class="p" d="M231.08,443.2c.06-.07,.12-.15,.19-.24-.02,.02-.04,.05-.06,.07-.04,.05-.08,.11-.12,.16Z"/></g></g><path class="j" d="M571.84,605.88c-.38-8.21-2.01-16.67-6.45-23.71-7.09-10.77-18.54-18.29-28.3-20.37-3.15-.7-6.59-1.18-10.25-1.34,1.86-3.68,2.83-7.68,1.56-11.74-2.61-6.86-10.83-8.8-17.42-9.35-13.02-1.28-25.25,4.54-36.26,10.85-.75,.45-1.5,.92-2.24,1.39,.39-1.15,.76-2.3,1.1-3.46,4.06-14.25,6.34-29.63,2.31-44.14-5.46-20.19-21.67-31.37-41.84-22.17-6.31,3.23-11.46,8.31-16.21,13.48-6.77,7.77-12.37,16.66-15.06,26.68-1.39,5.1-2.38,10.32-3.03,15.57-7.76,.56-14.98,5.08-19.54,11.28-1.52,1.97-2.46,4.28-3.41,6.56-1.47,3.53-2.65,7.22-3.15,11.02-.19,.69-.38,2.53-.34,4.78-1.13,.28-2.24,.65-3.3,1.12-6.53,2.45-11.66,7.41-15.3,13.26-3.92,6.43-7.44,13.26-9.23,20.61-.23,1.39-.82,2.81-.6,4.21,0,.15,.05,.29,.08,.43-3.13,2.59-1.5,8.56,3.18,8.5,39.44,2.29,78.99,1.4,118.48,1.18,14.39-.16,28.79-.46,43.18-.62,14.45-.05,28.9-.37,43.27-2.1,1.25-.1,3.59-.3,6.21-.51,.81,.05,1.55,.08,1.78,.03,1.07,.23,2.25,.14,3.31,.27,.41,.03,.41,0,.24-.07,8.1,.62,7.56-7.53,7.26-11.66Zm-73.66-30c.28-.24,1.41-1.38,2.07-1.95,3.18-2.22,7.36-3.75,11.49-4.73-2.89,2.6-6.12,4.88-9.44,6.4-1.65,.78-3.53,1.2-4.59,1.1,.08-.14,.26-.49,.47-.81Zm-89.97-22.42c-.31-.45-.59-.92-.84-1.41-.06-.15-.13-.31-.2-.48-.04-.05-.05-.07-.08-.11-.25-.63-.48-1.26-.64-1.92-.07-.87-.13-1.32-.11-2.27,2,1.03,1.43,.78,3.23,2.46,.02,.03,.04,.07,.05,.11,.18,.5,.47,1.31,.55,1.75,.04,.18,.08,.35,.12,.53,.03,.52,0,1.13,0,1.42-.06,.33-.14,.66-.25,.98-.07,.13-.13,.26-.21,.38-.18-.11-.36-.23-.53-.34-.36-.32-.68-.68-1.03-1.01l.06,.04s-.08-.09-.12-.13Zm12.12,58.39c-19.35-.32-38.71-.51-58.05-1.31-3.13-.15-6.25-.36-9.38-.57,.3-1.13,.51-2.34,.88-3.39,1.6-5.93,7.11-16.58,10.2-19.92,3.41-3.78,3.59-3.82,8.43-6.26,.82-.28,1.56-.58,2.29-.81,.22,.56,.45,1.09,.73,1.57,1.19,2.05,2.98,3.89,5.3,4.58,3.13,.75,6.8-.9,7.78-4.09,1.65-4.86-2.76-9.15-7.17-10.41-.01-.27-.02-.56-.04-.9,.14-3.66,.21-3.7,1.46-8.39,2.09-6,2.22-7.09,5.99-10.92,3.05-2.72,4.3-3.34,8.2-4.7,.48-.17,1.5-.37,1.96-.47,.13-.01,.26-.03,.39-.04,.03,1.59,.18,2.79,.56,5.51-.28-2.01,.11,1.17,.27,1.95,.13,.66,.2,.97,.19,.79,.26,1.44,.94,2.8,1.6,4.1,.36,.64-.15-.46-.24-.7,1.14,2.42,.5,1.17,2.33,3.32,1.81,2.02,7.94,5.54,12.32,.61,3.16-3.6,3.96-9.03,2.08-13.41-1.98-4.51-6.22-7.71-10.95-9.3,.03-.16,.06-.32,.09-.48,1.17-5.64,2.79-11.17,4.72-16.59,1.85-5.23,4.39-11.03,10.84-19.22,2.08-2.44,10.58-11.94,16.72-14.01,16.1-5.81,27.34,3.59,30.01,22.96,1.5,14.3-1.02,23.85-5.14,38.06-1.44,4.46-3.11,8.45-4.9,11.96-2.1,2.04-4.05,4.22-5.75,6.61-2.16,3.96,2.59,7.33,5.6,5.1,1.03,.07,2.09-.25,2.96-1.14,1.68-1.91,2.96-4.09,4.11-6.34,4.03-3.62,9.14-7.33,14.49-10.17,8.67-4.84,16.6-8.52,23.76-9.02,10.47-.68,18.43,1.55,17.48,6.92-.32,2.08-1.47,4.63-3.21,7.29-3.04,.25-6.17,.73-9.37,1.49-7.2,1.96-16.03,4.69-18.86,12.35-1.94,7.15,4.83,9.77,10.71,7.83,7.91-2.37,14.8-7.64,19.95-14.01,.13-.16,.25-.33,.38-.49,15.45-.26,25.87,7.26,33.29,15.55,.82,.54,5.93,9.38,5.98,10.59,1.05,2.82,1.69,5.76,2.11,8.74,.15,1.64,.46,3.04,.42,5.86-.06,.69-.01,.68,.04,.41-.08,.55-.05,1.1-.03,1.66-1.3,.16-.78,.13-2.1,.26-.15,.02-.31,.03-.47,.05-2.08-.02-4.15-.08-6.22-.15-12.8-.46-19.71-2.34-33.25-2.09-7.9,.22-11.03,.49-18.25,1.14-1.76,.17-3.52,.36-5.27,.55-.07,0-.13,.02-.2,.02,0-.02-.04-.02-.18,.02-4.91,.56-6.9,.79-9.65,1.24-22.64,.36-45.27,.63-67.91,.23Z"/><g><path class="p" d="M772.53,173.14h0Z"/><path class="p" d="M940.01,160.6c-.27-7.71-8.61-11.22-15.26-12.08-6.64-1.05-13.44-.59-20.07,.76-.25-1.47-.66-2.94-1.3-4.38-2.73-5.38-8.28-8.61-13.77-10.62-7.03-2.6-14.45-2.19-21.67-.62-3.89-9.6-15.1-13.26-24.67-13.95-6.12-.3-12.31,.06-18.27,1.55-9.3,2.45-18.22,6.33-26.53,11.15-9.52,5.63-18.83,11.83-26.66,19.71-5.32,5.45-9.7,10.11-13.47,15,.03-1.35-.05-2.7-.32-4.03-.87-3.41-5.98-3.12-6.36,.39-.14,.52,0,1.03,.11,1.55,.19,2.12,.33,4.24,.3,6.37-.07,3.13,.03,2.07-.1,3.19-.14,1.06-.61,2.05-.65,3.13-.03,1.12,.65,2.2,1.61,2.74,1.64,.92,3.49,.25,4.95-.71,1.49-.88,3.04-1.67,4.62-2.38,4.19-1.85,4.79-2.06,7.43-3.13,.68-.27,1.34-.56,2.01-.84,.2-.06,.38-.13,.55-.23-.05,.02-.11,.05-.17,.07,.06-.02,.12-.05,.17-.07,.44-.25,.81-.63,1.09-1.06,1-1.62-.14-4.05-2.08-4.17-1.51-.26-7.31,1.61-10.78,3.12-.21,.09-.42,.19-.63,.28,3.68-4.27,8.74-8.95,13.38-13.05,9.21-8.47,27.01-21.16,43.07-27.4,8.5-3.22,14.46-4.74,22.23-4.71,6.19-.03,8.54,.3,14.72,2.42,3.08,1.11,6.54,3.68,8.05,6.75-1.91,.57-3.8,1.18-5.64,1.81-5.87,2.17-12.19,3.96-16.93,8.25-1.6,1.57-3.25,3.31-3.87,5.51-1.04,3.52,1.49,7.09,5.1,7.46,4.76,.69,9.51-.99,13.84-2.82,6.56-2.65,13.63-8.44,14.65-15.54,3.77-.88,7.11-1.29,11.33-1,6.44-.11,13.97,4.05,16.44,7.09,1.12,1.44,1.71,3.07,1.92,4.73-2.14,.61-4.25,1.3-6.31,2.04-6.3,2.63-13.4,4.68-18.07,9.94-.24,.45-1.88,1.92-2.38,4.28-.77,4.62,2.41,7.03,6.74,7.15,3.31,.16,6.5-1.09,9.53-2.25,2.95-1.31,5.97-2.59,8.6-4.49,4.25-2.82,7.06-6.96,8.05-11.54,.83-.17,1.66-.33,2.5-.49,.6-.1,3.58-.54,3.35-.53,9.04-1.13,18,.04,21.48,3.01,.27,.2,.64,.6,.87,.86,.17,.24,.32,.48,.45,.74,.12,.35,.21,.7,.27,1.06v.11c-.02,.61,.13,.73-.57,2.59-.02,.05-.04,.09-.05,.13-.11,.24-.22,.47-.33,.68-5.95-.23-11.89,1.41-17.54,3.18-3.25,1.04-6.47,2.35-8.95,4.77-2.05,1.9-3.93,4.74-3.11,7.65,1.63,4.57,7.39,4.97,11.47,4.02,6.52-1.85,8.79-3.18,14.42-6.9,2.41-1.63,4.84-3.56,6.83-5.81,8.54,1.49,12.97,6.86,7.94,14.23-9.16,10.8-30.37,19.48-40.92,19.03-3.63-.85-5.06,4.37-1.47,5.48,4.96,.94,10.06-.35,14.88-1.52,8.72-2.39,17.06-6.32,24.37-11.65,3.61-2.68,7.34-5.52,9.63-9.46,5.79-10.55-.76-19.43-10.84-22.04,.5-1.41,.79-2.89,.79-4.47Zm-14.21,10.58c-2.22,1.61-4.61,2.98-6.93,4.41-.64,.53-.07,0,.3-.23-2.78,1.39-3.56,1.83-7.49,2.76-.81,.06-1.63,.07-2.44,0-.06-.01-.14-.03-.25-.05l-.1-.03s-.03-.02-.05-.03c.03-.05,.06-.11,.09-.15,1.82-2.05,1.36-1.51,3.5-2.86,2.64-1.32,8.44-2.97,13.37-3.83Zm-28.57-13.4c-.37,.78-.8,1.47-1.26,2.05-3.05,3.38-4.51,4.1-9.23,6.46-2.49,1.03-6.25,2.84-9.43,2.23,.85,.12,.64,.1-.07-.05-.07-.02-.12-.04-.18-.05v-.1c.01-.12,.05-.24,.08-.35,.13-.23,.34-.59,.55-.9,.03-.02,.42-.48,.71-.76,.2-.22,.62-.59,.91-.83,4.09-2.82,5.82-3.04,9.58-4.72,2.75-1.09,5.52-2.1,8.35-2.96Zm-35.94-15.79c-1.56,2.62-4.93,5.78-9.57,7.86-2.18,1.27-8.8,3.25-10.9,2.58,0-.03,.01-.06,.02-.09,.19-.38,.27-.5,1.38-1.68,2.02-1.84,.99-1.06,3.41-2.57,4.4-2.44,9.24-3.99,15.66-6.1Z"/></g><path class="h" d="M797.4,562.71c-3.9-2.72-8.35-4.6-12.21-7.41-4.98-3.5-5.17-3.42-10.25-7.86-.58-.42-2.04-2.12-2.63-2.82-.6-.88-1.05-1.91-1.99-2.46-4.01-3.24-9.67,1.81-7.05,6.23,2.68,4.36,6.66,7.66,10.73,10.67,.99,.76,2,1.5,3.02,2.23-4.45,1.77-12,4.09-17.85,5.7-13.45,3.29-23.49,4.35-38.7,3.86-14.37-.73-32.41-5.64-41.56-12.96,2.22-.68,4.42-1.44,6.57-2.3,8.15-3.1,16.9-10.36,16.26-19.87-.3-5-2.98-10.09-7.72-12.14-7.94-4.03-18.19-1.62-24.28,4.65-5.74,5.62-6.8,14.55-4.55,22,.09,.33,.21,.64,.31,.96-11.61,2.23-20.13,3.06-31.82,.12-1.72-.5-3.6-1.28-5.27-.21-2.33,1.28-2.76,4.7-.84,6.54,1.45,1.33,3.59,1.49,5.41,2.08,3.56,.9,7.21,1.39,10.87,1.75,8.85,.83,17.82,.35,26.54-1.41,4.9,5.99,12.08,10.2,19.24,13.07,12.59,5.31,26.36,7.36,39.97,7.08,16.26-.16,32.42-3.3,47.7-8.83-3.96,3.06-7.67,6.47-10.65,10.51-.17,.2-.36,.44-.55,.71-.12,.15-.12,.15-.06,.08-1.31,1.79-2.79,4.76,.86,7.37,2.23,1.3,4.85,.18,6.27-1.76h-.01c.07-.06,.14-.13,.2-.21,2.12-2.38,4.46-4.55,6.82-6.69,4.35-3.59,3.88-3.56,9.26-6.67,4.29-2.22,3.03-1.16,7.19-3.33,3.15-1.78,3.69-6.41,.78-8.68Zm-125.84-23.06c.81-2.33,.29-1.54,1.86-3.99,.79-.94,1.7-1.77,2.67-2.53,.33-.25,.78-.57,1.09-.75,.35-.21,.95-.5,1.32-.68,4.29-1.61,6.8-1.39,8.85-1.01,.28,.08,.55,.17,.82,.27,.06,.03,.1,.05,.16,.08,.55,.19,1.63,.84,2.11,1.11,.25,.22,.48,.46,.7,.71,.08,.13,.18,.27,.29,.44,.1,.16,.2,.33,.3,.5,.8,2.6,.53,1.17,.55,3.7-.03,.14-.07,.29-.12,.45-.42,.92-.91,1.8-1.48,2.63-2.26,3.46-8.71,6.86-18.22,9.15-.26-.69-.44-1.51-.86-3.05-.74-4.11-.85-3.58-.05-7.05Z"/><path class="q" d="M790.12,346.56c2.11,.9,3.95-1.97,2.27-3.55-1.83-2.27-5.47-6.17-8.64-10.56-4.85-6.32-8.98-11.95-8.82-17.27-.1-1.69,.2-3.13,.79-4.31,2.52,2.93,5.61,5.39,9.44,6.26,3.66,1.01,8.1-.87,8.58-4.95,.81-4.2-2.73-7.76-6.43-9.06-3.62-1.72-7.42-1.54-10.57-.06-4.85-8.43-4.72-19.32,.62-25.3,1.23-1.21,2.8-2.28,4.56-3.01,.74,1.42,1.66,2.75,2.8,3.91,2.93,3.06,7.31,4.81,11.27,2.62,5.15-3.37,2.5-9.67-2.46-11.62-2.62-1.35-5.43-1.78-8.19-1.51-.61-4.05,.39-8.7,3.81-12.4,2.15-2.49,5.05-3.8,6.13-3.85,3.81,.33,4.22-5.22,.39-5.35-6,.25-11.26,5.32-13.91,10.41-1.81,3.8-2.38,8.32-1.62,12.53-4.04,1.7-7.51,4.77-9.34,8.39-4.47,8.98-3.52,20.05,1.66,28.53-1.84,2.23-2.95,5.12-2.84,8.41-.32,8.62,6.54,17.27,10.29,21.64,3.6,4.18,8.12,9.05,10.21,10.12Zm.12-72.45c1.54,.55,.64,.11,2.62,1.18,.06,.04,.11,.08,.15,.1,.07,.06,.14,.13,.21,.2,.15,.22,.29,.44,.4,.68,0,.09,0,.18,0,.27-.01,.02-.03,.05-.04,.07-.06,.07-.12,.14-.19,.2-.05,.03-.11,.05-.16,.08-.15,.05-.35,.11-.55,.15l-.09,.02c-.3,.03-.61,.02-.91,0-.18-.03-.38-.07-.56-.11-.26-.12-.51-.25-.76-.4-1.14-.68-2.13-1.68-2.94-2.88,.93,.03,1.87,.16,2.8,.42Zm-2.43,35.19c.15,.14,.29,.3,.43,.45,.1,.15,.23,.35,.33,.53,.05,.13,.1,.26,.13,.4,.01,.2,0,.41,0,.58-.03,.16-.06,.29-.08,.39-.04,.08-.09,.16-.13,.23-.02,.02-.03,.04-.06,.06-.04,.04-.08,.07-.12,.11-1.85,.84-5.5-.97-8.56-4.58,2.55-.81,5.64-.26,8.06,1.82Z"/><g><path class="q" d="M55.43,631.73c-13.28,0-27.14-.38-41.61-1.15l.05-1c14.42,.77,28.27,1.15,41.51,1.15,230.7,.01,286.79-113.91,341.16-224.29,31.81-64.57,61.86-125.57,124.58-164.33,113.52-70.16,159.48-116.1,178.04-142.28,19.96-28.15,13.31-39.83,13.24-39.95l.86-.52c.3,.49,7.05,12.37-13.28,41.04-18.62,26.26-64.67,72.31-178.33,142.56-62.48,38.61-92.46,99.48-124.21,163.92-54.5,110.64-110.77,224.85-342.01,224.85Z"/><path class="q" d="M864.4,515.83c-.02-.27-3.54-26.88-145.18-28.65-39.89-.5-74.16-7.23-101.88-20-25.75-11.87-44.79-28.8-55.07-48.98-15.56-30.56-10.62-66.47,13.93-101.13,20.06-28.32,47.13-52.14,73.32-75.18,49.61-43.64,96.46-84.87,82.97-147.83l.98-.21c13.61,63.53-33.46,104.94-83.29,148.79-26.14,23-53.17,46.78-73.16,75-24.32,34.34-29.24,69.89-13.85,100.1,10.17,19.97,29.05,36.75,54.59,48.53,27.59,12.71,61.73,19.41,101.48,19.91,143.16,1.78,146.11,28.46,146.17,29.59l-1,.05Z"/><path class="q" d="M293.58,424.92c-.65,0-1.3-.03-1.95-.1-18.58-1.93-36.38-31.04-58.91-67.89-35.95-58.78-80.69-131.94-154.02-139.44l.1-1c32.79,3.35,62.85,20.1,91.9,51.21,25.03,26.82,45.14,59.69,62.88,88.7,22.39,36.61,40.08,65.53,58.16,67.41,6.58,.69,12.9-2.29,19.31-9.09,22.88-24.25,41.2-86.27,52.99-179.37,8.91-70.4,11-134.36,11.02-135l1,.03c-.02,.64-2.11,64.64-11.02,135.09-8.24,65.07-24.17,149.11-53.26,179.94-6.02,6.38-11.99,9.5-18.19,9.5Z"/></g></g></g></g></g><g id="c"><g class="m"><g><g><path class="k" d="M668.07,437.13s-.03,.07-.05,.1c-.08,.17-.15,.34-.24,.51,.12-.22,.28-.52,.29-.61Z"/><path class="h" d="M674.6,451.96l.12,.32c-.37-.87-1.01-1.61-1.68-2.28-1.77-1.74-4.32-2.7-6.79-2.55-4.58,.36-7.5,3.95-9.08,9.73-.14,.6-.24,1.2-.31,1.81,0,.02-.01,.04-.02,.05-.37,1.47-.19,2.11-.41,3.79-.21,1.4-1.83,2.1-2.53,.14-.2-.39-.32-1.14-.38-1.79,.02-.41,.04-1,.05-2,.04-.24,.08-.49,.11-.73,.02-.1,.04-.21,.07-.31,1.27-5.38,3.41-8.19,6.04-11.03,.07-.08,.14-.16,.21-.23,.06-.06,.23-.23,.53-.54,2.25-2.23,4.56-4.43,6.38-7.04,.31-.43,.55-.9,.78-1.37h0c.03-.06,.06-.12,.09-.18v.03c.07-.18,.15-.35,.24-.53,.07-.15,.12-.29,.18-.45v.03c.43-1.12,.64-2.3,.83-3.49,.16-.92,.15-1.84,.09-2.77-.01-.44,0-.9-.15-1.31-.15-.92-.41-1.82-.72-2.7-1.06-3.67-3.77-7.62-7.86-7.95-.15-.02-.31,0-.46,.01-.85,.02-1.68,.19-2.46,.55-.85,.41-1.75,.99-2.2,1.85-.66,.93-1.11,2.03-1.38,3.13,.02-.09,.03-.17,.05-.24-.54,1.73-.7,3.55-.83,5.34-.28,2.3-.44,5.9-2.5,8.51-.18,.21-.38,.4-.58,.59-.13,.08-.27,.16-.39,.26-.19,.09-.37,.17-.5,.23-.16,.04-.32,.08-.49,.11-.05,0-.1,0-.15,0-.06-.02-.12-.05-.18-.07-.02-.01-.05-.03-.07-.04-.05-.06-.1-.11-.14-.17-.06-.11-.12-.21-.17-.33v-.02c-.05-.14-.1-.28-.15-.42-.1-.52-.23-1.03-.3-1.55-.1-1.58-.19-1.03,.03-3.98,.14-2.76,2.06-8.21,3.43-10.58,1.34-2.57,2.87-5.04,4.11-7.66,.46-1.13,1.17-2.28,1.38-3.5,.17-.67,.31-1.35,.43-2.04,1.69-9.21-6.18-17.49-13.52-13.98-2,.88-3.66,2.51-4.71,4.41-.24,.48-.53,.95-.67,1.46-.01-.01-.05,.09-.13,.43-.55,1.96-.45,4.02-.08,6,.04,.43-.01-.24-.03-.41,.59,6.17,1.67,8.02,1.43,13.36-.22,1.69,.04,.49-.52,2.4-.03,.09-.07,.18-.11,.26-.06,.12-.15,.27-.24,.42-.07,.09-.12,.16-.16,.22-.05,.05-.11,.11-.16,.15-.06-.06-.12-.12-.18-.19-.11-.13-.21-.26-.29-.36-1.43-2.26-1.13-2.89-2.12-6.02,.07,.19,.13,.37,.2,.56-.37-1.62-.67-3.26-.93-4.91-.05-3.31-.2-7.34-1.11-11.02-.04-.34-.11-.66-.25-.95-.88-3.02-2.33-5.74-4.75-7.51-3.11-1.97-7.14-1.86-10.27,0-4.44,2.71-6.67,8.13-6.26,13.21,.07,1.65,.33,3.29,.89,4.84,.59,1.88,.5,1.66,1.93,4.75,2.85,5.53,6.99,10.33,11.38,14.7,3.75,3.62,6.5,6.28,7.7,9.13-1.68-1.01-3.15-2.51-5.7-4.7-3.78-3.26-7.73-6.88-12.74-7.98-3.26-.8-6.99,.31-9.04,3.01-1.29,1.59-1.88,3.64-1.91,5.67,0,4.26,3.37,7.57,6.56,9.97,.85,.57,1.7,1.26,2.68,1.61,1.39,.68,2.86,1.15,4.37,1.47,3.73,.78,10.94,1.4,12.26,1.81,8.15,1.76,12.66,4.22,13.5,10.04,.06,.68,.03,1.36-.07,2.03-.05,.2-.1,.39-.16,.58-.03,.06-.05,.11-.07,.16-.11,.21-.27,.45-.4,.63-.14,.15-.29,.28-.45,.41-.03,.02-.06,.04-.1,.05-.06,.02-.12,.03-.19,.04-.09,0-.18,0-.27,0-.18-.02-.3-.03-.39-.04-.17-.04-.34-.09-.5-.15-1.68-.69-3.6-2.22-6.33-4.99-2.11-2.04-4.32-4.48-7.21-5.31h.1c-.66-.21-1.31-.36-2-.47-1.03-.24-2.1,0-3.12,.18-2.45,.55-4.76,1.97-6.38,3.88-.96,1.26-1.51,2.81-1.79,4.35-.45,3.86,.77,8.06,3.68,10.72,2.71,2.77,6.47,4.01,10.23,4.52,7.35,.88,14.25-1.59,19.9-.98h.03c.1,.03,.21,.04,.31,.08,.19,.06,.37,.14,.55,.21l.12,.07c.12,.07,.23,.16,.35,.25,.09,.09,.18,.17,.26,.26l.03,.03c.06,.1,.11,.2,.16,.3,.01,.07,.03,.14,.04,.21,0,.05,0,.1,0,.15l-.02,.06c-.32,.91-2.16,2.11-7.27,1.34-1.6-.11-5.1-1.03-8.31-.04-4.23,1.15-7.36,5.54-5.1,9.76,1.39,2.51,4.28,3.71,6.98,4.26,1,.21,2.01,.34,3.01,.38,1.2,.33,2.47,.5,3.66,.69,11.26,.65,24.21-8.01,29.79-19.85,2.96-5.52,4.53-11.59,3.57-17.04-.37-1.81-1.06-3.55-1.92-5.17Z"/></g><g><path class="o" d="M779.36,123.14c.06,.02,.13,.04,.19,.06,.3,.08,.61,.17,.91,.26-.4-.14-.94-.33-1.09-.32Z"/><path class="j" d="M802.41,108.34c.17-.09,.34-.18,.51-.28-1.36,.84-2.43,2.12-3.37,3.4-2.44,3.41-3.38,7.93-2.47,12.02,1.81,7.56,8.56,11.5,18.65,12.61,1.04,.08,2.08,.08,3.11,.05,.03,0,.06,0,.09,.01,2.56,.22,3.58-.23,6.43-.32,2.4-.01,4,2.51,.9,4.2-.6,.44-1.82,.83-2.9,1.11-.7,.08-1.68,.19-3.36,.43-.42,0-.84,0-1.25,0-.18-.01-.36-.02-.54-.04-9.32-.71-14.57-3.55-20.01-7.2-.15-.1-.3-.2-.45-.3-.11-.09-.44-.32-1.04-.74-4.31-3.17-8.59-6.46-13.43-8.82-.8-.4-1.64-.68-2.49-.94h0c-.11-.04-.22-.07-.33-.1l.05,.02c-.32-.09-.63-.19-.95-.28-.26-.07-.53-.13-.79-.18h.05c-1.99-.43-4.02-.48-6.05-.47-1.58-.03-3.12,.23-4.65,.58-.73,.14-1.49,.25-2.16,.59-1.5,.5-2.94,1.16-4.33,1.91-5.85,2.74-11.74,8.3-11.22,15.23,.01,.26,.07,.52,.14,.77,.25,1.41,.76,2.76,1.57,3.96,.91,1.32,2.11,2.67,3.67,3.18,1.72,.87,3.68,1.33,5.58,1.48-.15,0-.3,0-.42-.01,3.03,.45,6.11,.23,9.14-.01,3.92-.14,9.97-.82,14.87,1.95,.39,.25,.77,.52,1.13,.81,.16,.21,.34,.4,.53,.58,.21,.29,.39,.58,.52,.78,.11,.26,.21,.52,.31,.79,.02,.08,.04,.16,.05,.25-.02,.11-.05,.22-.07,.33-.02,.04-.03,.09-.05,.13-.08,.09-.17,.19-.25,.29-.16,.13-.33,.25-.5,.37h-.03c-.23,.12-.45,.25-.67,.37-.84,.3-1.66,.65-2.51,.91-2.61,.58-1.67,.59-6.66,.99-4.65,.5-14.25-1.29-18.58-2.96-4.65-1.57-9.18-3.47-13.88-4.86-2.01-.47-4.12-1.35-6.21-1.39-1.17-.12-2.34-.17-3.52-.19-15.83-.4-27.6,14.91-19.82,26.26,2,3.12,5.15,5.45,8.61,6.72,.86,.28,1.72,.63,2.62,.74-.02,.02,.17,.06,.75,.11,3.42,.4,6.84-.3,10.05-1.44,.71-.18-.4,.08-.68,.15,10.15-2.61,12.96-4.9,21.94-5.9,2.88-.07,.81-.2,4.14,.24,.16,.03,.31,.08,.47,.12,.22,.08,.49,.18,.77,.29,.18,.09,.3,.15,.41,.21,.11,.08,.2,.15,.29,.22-.08,.11-.17,.23-.27,.35-.19,.22-.37,.42-.52,.58-3.4,2.98-4.53,2.65-9.5,5.12,.29-.16,.58-.32,.88-.48-2.62,1.05-5.27,1.98-7.96,2.83-5.51,.95-12.21,2.25-18.12,4.74-.55,.15-1.07,.36-1.51,.67-4.82,2.26-8.98,5.4-11.3,9.91-2.48,5.71-1.24,12.41,2.68,17.16,5.69,6.71,15.33,9.02,23.72,6.99,2.74-.55,5.4-1.42,7.86-2.77,2.99-1.49,2.64-1.26,7.42-4.47,8.48-6.22,15.42-14.4,21.58-22.87,5.07-7.21,8.79-12.51,13.23-15.27-1.25,3.08-3.36,5.92-6.36,10.76-4.45,7.17-9.47,14.72-10,23.38-.49,5.65,2.35,11.6,7.41,14.32,2.99,1.75,6.57,2.19,9.97,1.7,7.13-1.11,11.76-7.62,14.94-13.58,.73-1.58,1.66-3.18,1.99-4.9,.77-2.5,1.17-5.07,1.31-7.68,.33-6.43-.53-18.64-.2-20.96,.8-14.09,3.72-22.26,13.22-25.19,1.11-.28,2.26-.41,3.41-.42,.34,.03,.68,.06,1.02,.11,.1,.03,.2,.06,.28,.08,.38,.12,.82,.33,1.15,.51,.28,.2,.55,.41,.8,.65,.04,.05,.08,.09,.12,.15,.04,.1,.08,.2,.12,.3,.02,.15,.06,.29,.07,.44,.02,.3,.03,.5,.04,.66-.03,.29-.06,.59-.12,.88-.71,2.99-2.76,6.6-6.67,11.88-2.86,4.06-6.36,8.4-6.98,13.45l-.02-.17c-.19,1.15-.26,2.29-.27,3.46-.13,1.79,.56,3.5,1.12,5.16,1.57,3.94,4.54,7.43,8.15,9.65,2.35,1.27,5.09,1.79,7.74,1.85,6.56-.27,13.27-3.4,16.95-8.96,3.92-5.26,5.01-11.86,4.86-18.28-.46-12.51-6.4-23.4-6.86-33v-.06c0-.18,.01-.36,.04-.54,.05-.33,.13-.65,.21-.97,.02-.07,.05-.13,.08-.22,.09-.22,.21-.43,.33-.65,.12-.17,.24-.34,.37-.51,.01-.02,.03-.03,.04-.05,.15-.12,.3-.24,.45-.35,.11-.04,.22-.09,.33-.12,.08-.01,.17-.03,.25-.04,.04,0,.06,0,.1,.01,1.61,.3,4.09,3.05,4.15,11.8,.24,2.71-.39,8.79,2.12,13.9,3.03,6.77,11.19,10.85,17.65,5.96,3.82-2.99,5.08-8.13,5.28-12.78,.1-1.73,.04-3.44-.16-5.14,.24-2.1,.2-4.26,.19-6.3-1.87-18.99-19.74-38.35-40.99-44.57-10-3.49-20.56-4.52-29.41-1.49-2.92,1.09-5.65,2.71-8.14,4.57Z"/></g><path class="f" d="M649.21,235.91c-1.05-.11-2.2,.38-2.52,1.47-.17,.64-.05,1.28,.23,1.87,.47,1.05,.98,2.08,1.47,3.12,1.65,3.51,3.56,7.64,4.52,9.85,1,2.38,1.05,2.6,1.32,3.35,.02,.07,.04,.15,.07,.22-1.62,1.43-3.23,2.86-4.84,4.3-2.71,2.45-5.62,4.71-7.93,7.58-1.02,1.2-1.45,3.38,.53,4.34,1.2,.55,2.54,0,3.74-.27,1.87-.5,3.73-.99,5.64-1.31,1.96-.38,5.88-1.11,6.22-1.15,.99-.14,1.98-.27,2.97-.42,2.46,3.24,5.41,6.56,9.14,10.43,.68,.69,1.34,1.42,2.11,2.01,.05,.09,1.17,1.12,1.58,1.3,2.62,1.38,4.72-.75,4.91-3.37,.25-1.92-.1-3.86-.27-5.78-.18-1.38-.41-3.75-.79-6.44-.19-1.33-.33-2.4-.45-3.31,3.2-.25,7.13-.47,10.85-.8,2.27-.14,7.19-.91,7.47-.96h.03c.18,.01,.36,0,.53-.04,.15-.01,.31-.03,.46-.05,2.7-.36,3.89-3.6,2.07-5.62-2.59-2.95-6.49-4.19-9.99-5.72-2.59-1.05-5.2-2.03-7.82-2.99,.09-2.04,.18-4.08,.3-6.12,.11-4.4,.81-8.89-.05-13.26,0-.03-.01-.05-.02-.08-.36-2.72-2.82-4.65-5.46-3.24-1.86,1.03-2.99,2.89-4.15,4.6-1.7,2.58-3.18,5.3-4.67,8-.86,1.54-1.74,3.08-2.63,4.61-.35-.14-.7-.28-1.05-.43,.01,0,.04,.02,.05,.02,0,0,.1,.05,.35,.16l.05,.02c-3.99-1.74-10.49-5.1-12.62-5.79-.31-.09-.64-.11-.97-.07h0c-.13-.01-.26-.03-.38-.03Z"/><path class="r" d="M209.24,310.94c-1.56,3.56-1.68,4.6-2.72,6.57-.29-1.48-.46-2.99-.85-4.45-.75-2.91-2.2-5.68-4.42-7.73-4.4-4.19-11.98-4.4-16.22,.12-8.13,8.92-6.21,23.97,2.15,32.1,3.52,3.22,8.23,5.11,13,5.25,3.43-.03,6.76-1.12,9.76-2.72,3.27-1.82,6.13-4.39,8.26-7.47,.4-.61,.82-1.22,1.19-1.86,1.76-2.39,3.2-5.04,4.22-7.81,1.45-3.98,2.18-8.58,.69-12.65-1.68-4.77-7.01-8.09-11.47-4.55-1.73,1.28-2.79,3.24-3.59,5.2Z"/><path class="r" d="M360.29,604.36c2.69-6.31-2.45-12.11-7.08-15.84-6.02-4.71-12.74-8.51-19.84-11.33-3.21-1.33-6.51-2.41-9.89-3.19,3.04-1.41,6-3.01,8.93-4.58,9.18-5.18,18.27-10.69,26.12-17.77,4.09-3.78,9.86-8.89,10.11-14.79-.08-3.62-3.01-6.32-6.47-6.87-3.43-.43-6.83,.34-10.19,.93-10.02,1.8-19.75,4.97-28.98,9.25-1.22,.55-2.42,1.13-3.62,1.72,5.52-8.83,9.99-18.39,11.96-28.66,.83-3.95,1.32-7.97,1.53-12,.23-3.06,.35-6.33-1.35-9.03-2.43-3.69-7.09-4.41-11.09-3.21-3.46,.88-6.26,3.2-8.88,5.52-6.14,5.45-10.88,12.31-14.76,19.53-4.37,6.97-7.79,14.51-9.66,22.55-3.43,13.79-2.63,29.39,5.52,41.42,6.46,8.96,14.92,16.36,24.31,22.14,8.43,5.12,17.68,9.42,27.54,10.69,5.16,.51,13.41-.44,15.79-6.48Z"/><path class="r" d="M350.91,227.79c-.05,.36-.1,.73-.15,1.09,.5-3.95,1.75-7.96,.79-11.93-.47-2.03-1.62-3.8-3.16-5.04-.08-.09-.16-.18-.24-.27-.69-.87-1.68-1.52-2.69-2-1.69-1.08-4.04-1.25-5.95-1.05-5.85,.57-11.25,4.43-13.83,9.69-1.53,3.03-1.85,6.57-.99,9.85,.69,1.75,.33,1.04,1.47,3.26,2.03,3.34,4.07,6.67,5.65,10.26,1.36,2.73,2.88,5.58,5.42,7.38,.28,.24,.69,.49,1.04,.71,1.96,1.05,4.24,1.74,6.44,1.04,3.47-1.06,5.54-4.19,6.15-7.65,.89-5.09-.86-10.24,.07-15.35Z"/><path class="f" d="M555.04,439.84c-11.25-3.48-27.37-.53-33.11,10.74-2.1,4.14-.97,9.5,2.5,12.54,2.07,1.72,4.85,2.53,7.51,2.63,4.13,.18,8.01-1.68,12.12-1.75h0c1.55,.31,.78-.02,3.51,1.12,3.94,1.89,7.74,4.52,12.25,4.73,5.94,.56,11.37-4.46,11.9-10.28,.36-9.51-7.93-17.45-16.68-19.72Zm9,18.75c-.01,.21-.03,.42-.06,.62-.04,.14-.08,.28-.13,.42-.08,.22-.18,.43-.28,.64-.24,.35-.51,.68-.8,1-.06,.05-.11,.1-.17,.15-.17,.14-.36,.26-.54,.38-.1,.05-.2,.11-.3,.15l-.27,.1c-.28,.05-.57,.09-.86,.11-.63-.04-1.26-.14-1.88-.28-.34-.11-.83-.27-1.17-.41-1.82-.77-3.57-1.75-5.35-2.65-.11-.13-.22-.26-.34-.37-.09-.08-.17-.16-.27-.24-.03-.02-.06-.04-.1-.07-.02-.01-.04-.03-.06-.04-1.95-1.42-4.38-1.79-6.83-1.77-.02,0-.04,0-.06,0-1.93-.03-4.24-.15-6.05,.67-.03,0-.06,.01-.09,.02l.02-.02-.04,.02c-3.25,.68-5.43,1.38-7.46,.9-.13-.04-.26-.07-.39-.12-.33-.11-.64-.26-.96-.4-.05-.04-.1-.07-.15-.1-.19-.22-.36-.46-.52-.7-.1-.21-.18-.42-.26-.64-.04-.27-.07-.56-.08-.8,.02-.2,.04-.4,.07-.6,.15-.4,.32-.8,.52-1.18,2-2.74,1.03-1.64,3.78-3.83,.76-.74,5.58-2.56,6.81-2.68,7.5-1.73,15.58-.21,20.6,4.56,.93,1,1.76,2.08,2.47,3.24,.21,.39,.41,.79,.59,1.2,.68,2.17,.31,.37,.62,2.73Z"/><path class="j" d="M291.92,450.7c-.15-3.79-.06-7.73-1.48-11.31-.06-.22-.13-.42-.22-.62h0c-.13-.44-.23-.88-.37-1.31-.17-.63-.36-1.26-.63-1.85-.05-.1-.09-.2-.15-.3-.02-.04-.04-.08-.06-.12l.04,.08c-1.23-2.29-3.95-3.07-5.98-1.42-.03,.02-.07,.03-.1,.05-.22,.16-.44,.32-.65,.49-.74,.41-1.28,1.11-1.81,1.77-.33,.4-.63,.81-.94,1.23h0c-.52,.49-.83,1.19-1.26,1.76-.08,.12-.15,.24-.23,.35,.03-.04,.06-.08,.1-.13-.29,.45-.55,.92-.79,1.4-.53,1.01-1.06,2.02-1.6,3.02-.86-1.52-1.69-3.06-2.5-4.61-.05-.09-.1-.17-.16-.25-2.01-3.24-1.86-3.04-3.43-5.71-1.11-1.95-2-4.02-3.31-5.86-.04-.09-.05-.1-.05-.05-.36-.68-.88-1.29-1.36-1.87-1.13-1.23-2.88-1.84-4.53-1.67-.78,.1-1.55,.25-2.24,.65-.09,.07-.16,.12-.23,.18-.89,.62-1.67,1.36-2.22,2.31-.06,.1-.11,.2-.16,.3v.02c-.11,.19-.2,.39-.26,.6-.3,.75-.58,1.51-.8,2.29-.69,2.7-1.78,5.28-2.6,7.94-.24,1-.79,1.99-.98,3.01h0c-.2,.68-.4,1.38-.59,2.07l-.12-.14c-1.39-1.54-2.74-3.12-4.08-4.7-.18-.25-.37-.51-.57-.75-.39-.65-1.04-1.11-1.67-1.54-.43-.27-.78-.44-.58-.27-.12-.08-.25-.15-.38-.21h0c-.17-.09-.35-.16-.53-.22-.28-.11-.56-.21-.85-.25-.49-.04-.97-.14-1.46-.07h.04c-.57,.02-1.14,.13-1.66,.34-.4,.15-.78,.33-1.15,.56-.67,.35-1.24,.9-1.71,1.52-.59,.76-1.19,1.53-1.62,2.4-.1,.23-.18,.47-.27,.7-.37,.95-.72,1.91-.93,2.91-.09,.28-.02,.13,.09-.12-.38,1.14-.42,2.37-.56,3.56-.15,1.4-.24,2.82-.15,4.23,.5,8.25,2.93,16.57,7.89,23.26,3.17,4.27,7.63,7.41,12.78,8.78,6.78,1.97,14.25,1.96,20.89-.53,5.21-2.01,9.77-5.68,12.75-10.42,3.83-6.46,5.53-14.03,5.4-21.5Z"/><path class="h" d="M772.53,442.72c0-.39-.04-.79-.08-1.18,0,0,0-.04,0-.15-.14-1.18-.32-2.42-.84-3.5-.01-.22-.04-.43-.08-.65-.04-.3-.13-.59-.27-.87-.36-.83-1.01-1.48-2.02-1.56-1.15-.22-2.3,.52-2.74,1.58-.18,.37-.29,.77-.29,1.19-.08,.62-.07,1.03-.84,3.69-.37,.79-.78,1.56-1.26,2.3-.52,.82-1.07,1.62-1.67,2.39-1.1,1.39-2.38,2.62-3.67,3.81-.27,.2-.54,.39-.82,.58-4.81,3.16-7.85,4.67-13.08,5.88-3.14,.57-3.94,.93-7.41,.6-1.44-.13-2.77-.39-5.47-.89-.21-.03-.42-.07-.63-.1-.56-.2-1.17-.03-1.74,.04-.89,.27-1.48,.79-1.82,1.41-.84,.53-1.3,1.69-.7,2.64,.52,.73,1.16,1.36,1.85,1.92,.15,.14,.31,.27,.49,.38,.05,.03,.09,.07,.14,.1,.11,.09,.26,.19,.44,.31,.75,.52,1.53,.99,2.29,1.45,3.94,2.44,8.53,3.69,13.16,3.69,6.77,.27,12.88-1.87,17.93-6.4,3.11-2.67,5.63-6.07,7.15-9.88,1.18-2.63,1.95-5.45,1.96-8.35,0-.04,0-.08,0-.12,.01,0,.02-.08,0-.33Z"/><g><path class="f" d="M698.95,91.45c-.39,.21-.34,.19,0,0h0Z"/><path class="f" d="M719.82,55.79c-2.12-2.53-5.94-3.15-8.52-.91-1.96,1.65-2.72,4.21-3.1,6.66-.06,.87-.33,1.85-.16,2.73-.06,.22,.08,2.08,.1,2.58,.01,.27,.02,.36,.03,.35,0,.22,.01,.43,.05,.64-.1-.04,.07,2.01,.05,2.51,.03,.34-.02,.7,.02,1.05-.03,.05-.02,.42-.02,.79-.03,1.26-.1,2.52-.27,3.78-.19,1.45-.44,2.89-.82,4.3l-.06,.24c-.03,.09-.04,.14-.05,.17v.03c-.15,.29-.25,.6-.38,.9-1.69,3.51-.68,1.83-2.69,4.82-2.75,3.45-1.85,2.35-4.18,4.53-.14,.07-.28,.16-.41,.25-.18,.1-.33,.19-.45,.25,.1-.05,.22-.12,.38-.21-.92,.55-1.94,.93-2.82,1.53-.34,.22-.65,.48-.97,.72-6.49,4.92-11.1,12.16-12.81,20.13-.75,3.61-.97,7.36-.62,11.05-.07,1.04-.11,2.08-.1,3.12-.09,7.31,1.19,21.35,9.79,23.31,3.01,.66,6.1-.79,7.67-3.4,1.85-2.75,2.32-6.13,2.5-9.37,.29-4.53,.15-9.1,.97-13.58,.75-3.41,.15-1.64,1.39-4.87,.13-.27,.26-.53,.4-.79,.34-.52,.7-1.03,1.08-1.52,3.94-4.79,12.07-9.33,14.34-19.19,1.17-4.99,1.42-10.15,2.25-15.2,1.02-7.09,1.82-9.49,1.26-17.19-.36-2.82-.92-5.68-2.42-8.14-.4-.69-.86-1.46-1.42-2.07Z"/></g><g><path class="r" d="M80.14,210.3c-4.56,2.18-4.26,6.95-3.34,11.07,.85,4.73,1.7,9.47,2.45,14.22,2.11,13.5,3.36,27.13,5.05,40.69,.14,1,.66,1.95,1.36,2.71,.41,1.74,2.11,3.21,4.13,2.82,.96-.03,1.92-.1,2.88-.21,1.2,0,2.42-.33,3.61-.52,.5-.02,1-.11,1.47-.27,.19-.04,.51-.11,1.05-.23,.77-.12,1.11-.23,1.17-.34,.88-.06,1.76-.32,2.55-.76,2.21-.99,4.33-2.16,6.37-3.45,7.15-4.53,12.56-11.4,15.33-19.21,4.93-12.98,3.64-28.29-7.49-37.73-7.07-6.35-16.81-8.9-26.26-9.49-3.42-.09-7.12-.76-10.33,.72Z"/><path class="j" d="M77.38,157.58c.05,0,.1,0,.15,0-.22,.03-.46,.06-.68,.11-1.98,.44-3.77,1.44-5.04,3.04-.15,.16-.25,.36-.37,.54-.99,1.18-1.43,2.8-1.76,4.28-.56,3.95-.17,2.28-.07,7.88,.3,4.34,.73,8.69,1.55,12.97,.5,3.05,1.62,6.13,4.13,8.09,1.97,1.54,4.44,2.24,6.9,2.3,1.09,.12,2.19,.08,3.21-.17,.2,.05,.87-.05,2.25-.36,.87,.04,1.73,.07,2.6,.13,6.07,.38,12.06,1.52,18.03,2.67,.66,.3,1.33,.61,2.05,.96,.53,.25,2.49,1.25,5.8,3.71,4.02,3.17,4.54,3.52,6.04,5.08,5.82,6.33,7.47,9.03,10.26,14.34,13.61,27.01-.38,59.84-31.22,69.96-.05,.02-.08,.04-.12,.06-.8,.29-1.61,.56-2.42,.81-.3,.08-.48,.13-.59,.17-.12,.03-.24,.07-.36,.1-1.96,.54-4.37,.89-6.25,1.83h0s-.05,.02-.08,.03c-.32,.16-.62,.35-.9,.55-.1,.07-.2,.15-.29,.22-.06,.05-.12,.09-.17,.14-.31,.25-.6,.52-.87,.82-1.45,1.17-2.33,3.05-2.01,4.99,.03,.37,.05,.47,.06,.45,.03,.37,.08,.73,.16,1.09-.3-.65,0,2.04,.11,3.41-.09,1.17,.05,2.39,.02,3.53,.04,2.93-.02,3.07,.97,8.59,.19,1.1,.51,2.1,.88,3.04,.19,3.51,1.53,7.01,4.95,8.38,4.95,1.26,10.18,.63,15.23,.34,14.18-1.19,27.92-6.86,38.81-16,23.06-19.47,30.95-52.21,26.5-81.24-3.15-17.78-11.77-34.36-22.54-48.7-6.27-8.19-20.93-18.59-25.31-20.7-5.19-3-10.82-5.2-16.7-6.39-6.46-1.7-13.15-2.06-19.81-1.91-2.03,.12-7.58-.27-13.1,.85Z"/></g><path class="f" d="M82.54,97.93c.13,.13,.26,.25,.38,.36,7.37,6.87,14.7,13.78,21.82,20.91,5.1,5,10.09,10.1,15.12,15.17,.72,.69,.94,1.01,.21,0,8.2,9.41,10.88,12.37,18.84,18.62,1,.74,1.99,1.51,3.08,2.12l-.12-.13c4.71,3.27,12.73,3.71,13.7-4.56,.16-6.99-2.59-10.93-6.57-16.66-9.04-12.38-24.7-28.08-37.74-41.64-3.61-3.7-7.19-7.42-10.83-11.09-1.27-1.11-2.31-2.9-4.16-2.95-.05,0-.1,0-.14,0-.02,0-.04-.02-.07-.03-.31-.09-.61-.13-.9-.14-.69-.27-1.39-.42-2.07-.39-3.23,.12-5.32,3.03-7.48,5.07-2.5,2.64-5.6,5.95-6.1,7.08-.46,.95-.39,1.88,0,2.65,.08,1.88,1.15,3.68,3.05,5.61Z"/><g><path class="r" d="M710.36,261.4c-.77,4.28,2.02,8.61,6.08,10.01,2.63,.93,5.42,1.13,8.19,1.11,2.28,.11,4.56,.28,6.8,.71,.31,.06,.62,.14,.93,.21,.17,.05,.39,.11,.66,.19,1.77,.53,3.45,1.29,5.09,2.15,3.89,2.16,8.1,3.68,12.49,4.48,6.5,.96,13.08,.26,19.38-1.46-13.2,6-26.64,9.06-36.66,12.52-5.82,1.39-13.83,3.4-16.01,4.16-1.19,.29-6.2,2-5.6,1.92-1.81,.52-3.48,1.54-5.11,2.47-.73,.37-2.71,1.71-2.72,1.79-.25,.16-.5,.34-.71,.56-1.88,1.38-3.58,3.09-4.87,5.04-.11,.18-.2,.37-.3,.55-2.34,2.9-1.97,8.17-1.48,12.12,0,.82-.12,1.63-.29,2.44-.2,.56-.46,1.11-.67,1.67-.62,.97-1.34,1.89-2.11,2.74-2.74,2.68-5.9,4.89-8.98,7.15-4.87,3.54-10.61,8.28-10.11,14.91,2.36,11.38,16.1,7.81,24.59,4.6,10.16-3.98,18.94-10.62,27.59-17.14,6.97-4.98,7.71-5.43,14.88-8.97,6.8-3.22,13.86-5.86,20.58-9.26,9.5-4.69,18.55-10.32,26.66-17.16,.12-.1,.24-.21,.36-.31-1.69,2.36-3.41,4.69-5.18,6.98-4.66,6.17-9.73,12-15.08,17.58-5.14,5.19-10.6,10.12-16.7,14.17-9.18,6.83-27.58,12.68-39.89,23.7-7.34,6.19-9.96,16.44-7.93,25.65,.55,2.93,1.57,5.79,1.86,8.75-.04,.72-.13,1.44-.28,2.16-.06,.21-.12,.43-.18,.65-2.39,8.01-8.72,15.46-7.04,24.22,1.95,8.85,11.07,9.72,18.44,7.2,17.56-6.62,32.88-25.21,43.64-40.16,6.74-9.7,12.69-19.95,17.7-30.65,8.52-18.2,12.04-27.3,21.29-40.7,8.71-12.38,16.86-19.01,25.46-29.24-5.86,16.23-17.36,35.54-23.59,47.52-3.16,5.71-6.48,11.34-10.04,16.82-5.98,8.44-12.43,16.62-17.38,25.73-2.78,5.07-3.55,6.48-5.61,14.49-1.44,5.06-1.47,10.74,1.95,15.04,8.75,8.82,18.1-1.73,22.27-9.85,1.11-1.79,2.17-3.61,3.31-5.38,2.28-3.42,2.52-3.53,3.3-4.27,.4-.36,.84-.69,1.29-.99h.03c.18-.1,.36-.19,.55-.27,.18-.03,.35-.06,.53-.08,.1,0,.2,0,.3,.01,.58,.18,1.14,.43,1.68,.7,.21,.12,.48,.28,.77,.45,2.59,1.55,5.38,3.03,8.47,3.1,16.3-.36,17.95-20.77,18.84-33.23,.39-6.49,.66-12.99,1.42-19.44,.49-3.83,1.18-7.63,2.11-11.38-.14,.57-.34,1.27-.12,.47,.06-.28,.14-.56,.21-.84,0-.04,.02-.07,.02-.11,0,.01,0,.04-.01,.05,4.19-16.83,19.03-41.62,14.33-59.1-.05-2.3-.11-3.35-.27-3.38-.02-.24-.01-.47-.06-.71-.32-.65-.03-.74-1.09-3.86-.14-.4-.23-.65-.29-.8-.05-.16-.11-.32-.18-.47-2.58-5.36-6.38-10.27-11.46-13.46-4.37-2.65-9.52-4.25-14.66-4.01-2.19,.1-4.47,.3-6.61,.86-.04,0-.08,0-.12,.02-1.49,.46-3.32,.96-4.83,1.81-.29,.08-.59,.15-.88,.22-4.28,1.09-9.73,2.27-10.92,2.32-6.72,.82-16.63,.19-20.84-.29-10.22-.87-20.29-3.12-30.57-3.31-13.12-.21-32.71,.58-36.59,16.06Z"/><path class="i" d="M835.3,329.9c.04-.17,.08-.31,.1-.42v.05c-.04,.12-.07,.24-.1,.36Z"/></g><g><path class="j" d="M254.08,106.71c-4.47-.44-8.38,1.83-12.03,4.11-.02,.01-.04,.02-.07,.04-.04,.02-.07,.04-.11,.06-.71,.26-1.43,.49-2.16,.69-2.41,.55-4.88,.77-7.33,.98-3.73,.71-3.68,.6-8.34,3.26-.76,.5-1.46,1.1-2.12,1.73-.92,.76-1.62,1.79-2.26,2.8-2.87,4.23-4,9.54-3.21,14.58,.99,4.91,3.67,9.47,7.11,13.06-.25-.14-.94-1.1-.78-.8,2.74,3.23,2.98,3.49,4.66,5.41,1.49,4.64,4.06,8.89,7.88,12.01,3.79,2.96,8.65,4.35,13.43,3.75,5.53-.74,11.14-3.52,13.74-8.66,2.87-4.84,2.76-10.64,2.86-16.08,.04-3.52,.86-6.95,1.72-10.34,1.72-6.44,1.65-13.62-1.92-19.44-2.49-3.93-4.8-6.57-11.07-7.15Z"/><path class="h" d="M261.89,46.04c-7.81,.08-14.99,3.37-21.75,6.98-7.72,3.53-10.05,3.3-15.38,3.15-7.83-.78-15.53-2.89-23.46-2.42-9.97,.58-20.03,4.68-26.77,12.19-5.52,6.64-9.46,14.47-12.27,22.68-.15,.25-.3,.49-.42,.77-1.76,4.32-2.82,8.81-3.29,13.35-.48,3.16-.67,6.36-.67,9.56-.03,1.45,.04,3.01,.89,4.23,.08,.18,.19,.35,.29,.52,1.29,7.47,4.13,14.71,8.32,21.12,6.59,9.58,12.64,14.83,17.68,20.8,7.26,8.52,9.31,15.79,13.37,28.87,4,12.75,10.32,25.18,20.48,34.11,9.07,7.81,20.34,13.45,32.18,15.41,15.16,2.16,30.85-3.24,42.14-13.43,5.05-4.79,10.03-9.93,12.77-16.43,9.66-22.05,.91-39.96-2.13-57.84-1.03-8.92-.86-11.36,.73-21.93,1.5-8.28,3.66-16.48,3.96-24.92,.42-9.56-.27-19.45-4.39-28.22-7.59-16.08-23.88-29.22-42.27-28.54Zm29.48,33.31c3.94,7.9,3.7,15.66,3.66,22-.39,9.07-2.91,17.84-4.33,26.76-.94,6.61-1.36,13.35-.78,20.01,2.53,19.99,9.69,30.52,5.7,47.72-.12,.57-.27,1.14-.42,1.71-.07,.21-.16,.51-.3,.93-.75,2.23-1.74,4.37-2.85,6.44-2.22,3.27-5.07,6.05-7.82,8.87-11.25,9.08-20.03,11.24-31.05,10.08-7.63-1.19-9.76-2.57-18.64-7.22-.22-.12-.4-.23-.56-.32-3.38-2.17-6.42-4.83-9.26-7.67-9.12-10.41-11.6-19.52-16.4-34.74-2.12-6.62-5.06-13.02-8.96-18.79-3.09-4.43-6.91-8.3-10.6-12.23,.4,.43,.81,.86,1.21,1.29-4.73-5.08-9.43-10.32-12.91-16.36-.64-1.24-1.21-2.51-1.76-3.79-.88-2.04-1.66-4.13-2.25-6.28-1.39-6.65-1.6-9.37-.85-14.07,.39-2.29,.9-4.57,1.55-6.8,2.13-6.36,7.9-22.38,16.52-26.37-.64,.35-1.48,.85-.53,.31,7.46-3.15,6.71-3.17,14.24-3.59,.78,.05,1,.04,.92,.03,4.81,.21,9.54,1.29,14.3,1.96,7,1.05,14.2,.79,20.95-1.49,6.04-1.97,11.24-5.97,17.43-7.53,12.47-3.03,26.62,5.03,33.79,19.12Z"/></g><g><g><path class="o" d="M482.55,525.52h-.02c-1.08,.35-1.53,.53,.02,0Z"/><path class="j" d="M610.27,607.15c.53-18.35-.52-37.23-6.26-54.77-6.52-18.24-18.26-34.84-33.59-46.74-18.76-15.08-52.78-24.35-86.63-19.44-2.06,.24-4.93,.81-8.52,1.62-2.46,.31-4.91,.66-7.34,1.08-12.29,2.91-24.62,7.04-35.09,14.28-10.19,7.48-18.62,17.45-24.77,28.47-8.51,15.69-12.44,33.28-14.46,50.99-1.12,5.24-1.84,11.06-2.57,19.51-.19,4.54-1.63,9.73,1.41,13.64,.56,.74,1.89,1.86,1.86,1.78,.25,.2,.51,.37,.79,.53l-.29-.15c.23,.2,.47,.4,.71,.59,.31,.29,.47,.39,.52,.36,2.18,1.75,5.43,2.17,8.04,2.98,4.49,.93,2.28,.84,8.41,1.33,1.29-.01,2.68-.07,3.96-.4,.78-.05,1.56-.15,2.3-.34,0,.01-.02,.02-.02,.03,.8-.15,1.55-.45,2.33-.69,.64-.25,1.23-.62,1.77-1.04l.05-.04c.19-.15,.37-.31,.54-.48,1.18-1.11,2.03-2.64,2.32-4.24,1.07-3.05,.9-3.34,1.9-8.23,4.42-28.67,9.99-51.83,26.81-67.25,.49-.45,1.04-.82,1.58-1.19,1.19-.81,2.27-1.79,3.45-2.63,.54-.3,.78-.47,.83-.55,.67-.26,1.29-.63,1.84-1.1,3.81-2.59,1.84-1.32,5.01-3.23,1.04-.72,4.59-2.06,1.68-1.07,2.46-.71,4.7-2.09,7.16-2.85,2.2-.62,4.3-1.78,6.51-2.39h.04c.06-.02,.14-.05,.21-.07l-.19,.07h.03c-1.32,.45-.65,.19,.6-.08,.09-.01,.16-.02,.26-.04,1.44-.31,2.93-.45,4.4-.57l-.1-.02c1.27-.12,2.55-.37,3.8-.55,.3-.02,.6-.02,.9-.04,1.65,0,2.62-.05,3.35-.1,2-.02,4.02,.04,6.04,.14,.8,.07,1.74,.16,2.87,.26,.22,.05,.44,.1,.66,.14,.33,.07,.4,.08,.32,.06,2.34,.4,4.76,.36,7.09,.79,.12,0,.24,.01,.36,.02,8.38,1.47,16.32,4.08,22.75,7.89,16.18,10.27,24.51,20.92,32.61,38.53,.38,1.47,.79,3.24,1.37,5.76,3.13,12.87,1.24,20.61,.07,35.25-.36,3.89-.92,7.79-.94,11.7-.25,.62-.44,1.26-.51,1.96,0,.68,.06,1.34,.2,1.98-.01-.02-.02-.05-.03-.06,.04,.21,.1,.4,.16,.6,0,.02,0,.03,.01,.05,.07,.25,.16,.5,.26,.73,.01,.02,.02,.05,.03,.08l.03,.05c.96,2.09,3.03,3.55,5.36,3.8,.1,.02,.19,.04,.31,.06,.23,.04,.47,.07,.7,.1,.33,.05,.66,.1,.99,.15-.12-.03-.27-.07-.43-.11,4.91,.93,8.21,1.32,16.55,2.14,.4,.02,.85,.02,1.26,.01,1.71,.23,3.41,.2,5.01-.38,2.94,.28,5.51-1.94,5.98-4.71,.83-1.18,1.47-2.52,1.86-3.9,.11-.42,.2-.85,.29-1.27-.07,.37,.18-.54,.44-2,.13-.57,.29-2.11,.41-3.76,1.44-4.28,2.05-8.97,2.4-13.04Z"/></g><g><path class="f" d="M556.5,613.67c.18-.79,.3-1.59,.37-2.4,.46-5.89,.99-9.3,.01-18.23-2.27-11.51-8.47-22.85-18.31-30.38-19.28-13.77-45.88-17.52-61.68-10.54-5.2,2.16-8.45,4.39-9.88,5.3-2.32,1.66-5.13,3.31-6.67,5.68,.13-.41-1.26,1.39-1.82,2.18-.14,.18-.26,.35-.37,.51,.04-.07,.06-.12,.11-.2-9.89,11.99-12.93,27.22-14.67,41.98-.17,2.32-.28,4.64-.39,6.97-.03,.54-.04,1.13,.07,1.68,0,.21,.02,.45,.03,.75,0,.74-.02,1.52,.11,2.25,.04,2.17,1.62,3.86,4.5,4.74,4.28,.85,9.71,1.04,12.35-.06,1.94-.75,2.76-3.1,3.06-5.35,.57-1.52,.75-3.16,1.03-4.77,1.75-12.85,3.56-22.2,8.26-29.21,4.43-5.7,3.37-3.81,5.22-5.7,4.58-3.45,2.85-2.31,9.37-5.3,.28-.1,.54-.22,.81-.35,.07,0,.43-.14,1.22-.44,2.37-.71,5.95-1.62,11.28-1.09,5.08,.79,1.54-.02,7.35,1.73,.62,.15,7.98,2.38,9.53,3.62,6.19,3.84,5.43,3.51,9.78,8.02,.07,.06,.12,.11,.18,.17,.63,.66,1.24,1.34,1.82,2.04,1.22,1.93,2.27,3.96,3.07,6.07,2.22,7.11,2.05,8.17,1.93,14.34,0,.21,0,.4,.01,.57,.1,3.58-.83,7.09-.98,10.62-.03-.15-.06-.3-.08-.42-.1,1.03-.22,2.06-.34,3.09,.37-1.84,.27-.96-.07,.3-.02,.2-.02,.4-.01,.6-.13,1.74-.1,2.45-.05,2.99-.06,.52-.05,1.05,.04,1.57,.34,1.72,1.47,3.41,3.21,4.19,1.21,.67,2.68,.82,4.03,1.14,.69,.13-.16-.08-.73-.2,4.12,.85,9.07,1.21,12.41-1.5,.1-.1,.2-.21,.3-.31,.24-.21,.47-.44,.68-.7,.05-.06,.11-.11,.16-.16h-.03c1.87-2.41,2.28-6.3,2.8-9.15,.12-.45,.01-.13-.11,.3,.57-2.41,.84-4.91,1.22-7.35-.04,.12-.09,.27-.15,.44Z"/><path class="o" d="M556.66,613.14s0,.05-.01,.08c.07-.2,.1-.28,.01-.08Z"/></g><path class="h" d="M517.76,617.55c.37-7.77,.55-16.64-5.18-22.66-3.13-3.38-7.71-4.75-12.18-5.21-4.39-.5-8.88,.37-12.67,2.55-4.95,2.19-8.88,6.51-9.86,11.99-.94,4-1.34,8.1-1.82,12.18-.25,2.17-.5,4.38-.03,6.53,.03,.14,.1,.25,.17,.37l.02,.06c-.08-.14-.09-.07,.04,.13,.02,.04,0,0-.01-.05,.11,.3,.28,.62,.57,.78,.1,.18,.41,.7,.62,.94,0-.03-.02-.07-.03-.1,.87,1.09,2.21,1.84,3.64,2.19,2.89,1.08,6.58,1.05,9.06-.76,2.39-1.86,2.22-5.04,2.4-7.78,.67-10.92,1.79-12.46,7.89-11.61,.28,.08,.6,.2,.92,.33,.18,.11,.35,.23,.51,.36,.08,.09,.15,.17,.22,.26,.21,.39,.4,.79,.56,1.2,.14,.6,.42,1.77,.42,2.35,.01,.09,.05,.18,.07,.27-.02-.02,0,.18,.09,.75,.01,.12,.02,.19,.03,.22,0,.08,0,.16,.02,.24,0,.12,.01,.22,.02,.31,.09,2.85-.32,5.68-.25,8.53,.03,1.51,.07,3.03,.65,4.45h0c.07,.24,.15,.46,.26,.66,1.06,2,3.3,3.41,5.58,3.29,2.48,.06,5.15-.51,6.69-2.61,1.83-2.99,1.07-6.81,1.55-10.17Z"/></g><g><path class="f" d="M655.19,530.16c-4.63,1.08-6.47,5.98-5.28,10.28,.97,3.73,3.47,6.82,6.09,9.56,2.19,2.2,4.61,4.39,7.63,5.32,4.15,1.48,8.61-2.05,8.89-6.23,.16-.62,.23-1.28,.25-1.91-.19-7.89-9.17-18.46-17.58-17.02Z"/><g><path class="e" d="M722.79,567.18v.02s0-.07,0-.1v.08Z"/><path class="e" d="M697.98,624.28s-.05,0-.08-.01c.05,0,.1,.02,.15,.02h-.07Z"/><path class="r" d="M727.92,580.82c-.05-.06-.09-.13-.14-.19-1.04-1.48-1.96-3.05-2.75-4.67-.17-.35-.64-1.42-.87-1.95-.81-2.18-1.08-4.51-1.36-6.8,.01,.11,.02,.21,.02,.3-.01-.11-.02-.23-.03-.34-.06-.53-.04-.34,0-.05,0-.09-.02-.19-.02-.28-.5-5.3,.39-10.6,.15-15.91-.18-5.5-1.71-10.96-4.89-15.5-6.82-11-23.76-14.14-32.51-3.69-3.47,3.84-4.96,8.94-4.78,14.01-.28,2.18-.19,4.4,.32,6.54,2.5,10.13,13.74,18.22,18.28,25.08,1.32,1.93,2.85,4.89,2.98,5.78,.35,1.54,.22,1.63,.17,2.05-.05,.11-.07,.17-.09,.21-1.31,2.18-6.44-.13-8.26-1.97-4.94-4.34-6.67-10.9-9.81-17.55-.82-1.65-1.64-3.38-2.97-4.68-2.4-2.31-5.95-3.16-9.19-2.6-.17-.03-.33-.05-.51-.05-1.22-.07-2.31,.49-3.04,1.35-3.08,1.93-4.72,5.66-4.51,9.37,.91,9.3,4.51,17.33,1.41,17.63-1.44-.03-2.97-1.37-4.42-3.71-.65-1.65-1.1-3.24-1.87-5.38-1.22-4.1-2.2-8.04-6.5-11-4.95-3.35-11.46-.42-14.88,3.81-3.82,4.63-4.57,9.09-4.58,14.34,.04,1.82,.13,2.76,.54,5.17,.02,.05,.02,.07,.03,.11,0,.02,.02,.08,.06,.25,.02,.1,.06,.2,.09,.3,.05,.14,.11,.29,.16,.43,.71,3.37,1.93,6.88,3.1,10.9,1.29,5.2,1.33,7.35-.67,12.32-3.75,8.48-11.86,21.42-6.73,32.59,7.7,16.3,28.48,13.17,33.6-3.38,2.35-8.08-.38-16.38-3.25-23.95-3.31-7.98-2.21-12.63,.16-13.61,1.95,.03,3.47,1.18,5.81,4.36,.49,.6,2.52,4.03,4.2,5.66,.46,.46,.96,.88,1.47,1.28,.81,.72,1.68,1.37,2.68,1.93,7.44,4.28,15.48,3.83,23.34,4.96-.1-.02-.2-.04-.27-.05,.12,.02,.24,.04,.36,.07,.49,.06,.32,.05,.05,0,.23,.04,.45,.09,.68,.12-1.51-.26,1.52,.25,2.25,.63,1.39,.35,4.9,2.73,5.19,3.12,3.52,3.1,6.34,6.97,10.23,9.66,3.19,2.18,7.05,3.34,10.88,3.63,12.24,.15,21.26-12.4,22.34-23.69,1.14-19.02-11.72-23.81-21.7-36.94Z"/></g></g><g><path class="r" d="M56.75,610.43c.34-13.53,15.25-17.56,26.5-15.97,16.1,1.46,33.3,12.75,45.19,9.74,1.46-.84,2.21-.48,2.4-3.1-.12-.25-.28-.59-.44-.86-.06,0-1.46-1.65-1.88-1.84-.49-.49-2.75-1.8-3.25-2.1-6.82-3.46-15.02-3.86-21.27-8.44-8.58-7.16-2.56-15.67,6.88-17.01,7.71-1.2,15.58,1.08,22.29,4.83,7.29,4.03,10.32,7.45,16.99,9.66,2.82,1.01,5.7,.93,5.96,.68,.06-.03,.08-.05,.12-.07,.05-.04,.09-.07,.14-.11,.08-.12,.17-.23,.24-.35,.51-1.45,.42-.78,.45-2.25-.3-1.78-.15-1.16-.77-2.63-.02-.07-.03-.11-.05-.16-.11-.13-.22-.26-.32-.38-.17-.18-.35-.38-.57-.6-3.22-3.22-11.3-6.76-16.44-10.54-5.73-4.13-10.66-9.04-10.5-17.63,.79-10.81,10.97-18.95,21.52-19.03,10.81-.48,20.71,4.72,30.83,7.73,9.07,2.72,16.43,2.95,24.59-1.8,3.82-2.14,7.04-5.06,12.39-8.01,5.7-3.08,12.09-5.32,18.65-4.96,11.34,.16,23.97,6.22,25.52,18.56,1.15,10.77-6,20.71-15.26,25.57-9.34,5.21-20.9,4.14-30.86,1.34-15.17-4.73-29.59-13.34-40.81-8.89-4.28,2.07-3.08,6.87,1.08,9.76,3.72,1.09,7.85,2.44,11.72,3.93,6.25,2.33,12.94,5.18,16.44,11.21,3.6,6.37,2.6,17.06-9.85,20.22-3.8,1.5-8.41,2.1-13.17,1.62-4.64-.2-13.21-1.97-15.85-2.07-3.02,.36-3.73,.56-4.17,1.19v.03c0,.06,0,.1,0,.16,.03,.3,.08,.59,.17,.88,.8,1.87,1.11,1.21,2.7,4.24,1.85,4.01,.14,9.15-3.52,11.52-3.63,2.62-8.2,3.09-12.53,3.38-6.51,.42-13.04-.11-19.55-.17-7.87-.15-20.88,.17-26.09,.64-5.8,.4-11.59,.96-17.37,1.58-4.12,.34-8.33,.77-12.41-.12-9.1-1.54-16.6-9.92-15.82-19.35Z"/><g><path class="f" d="M204.34,610.11c-.7-2.12,.59-3.99,1.98-5.32,1.75-1.67,2.41-2.08,3.5-4.01,.01-.03,.02-.06,.03-.1,.04-.18,.07-.37,.11-.55,0-.06,.02-.13,.03-.21,.02-.12,.03-.25,.04-.37,.04-.52,.01-1.04-.03-1.57-.24-.78-.29-1.62-.62-2.38-.53-1.92-.42-4.05,1.09-5.33,.68-.59,1.53-1,2.46-1.2,.12-.05,.3-.08,.48-.1h-.01c.13-.02,.26-.03,.4-.04,.59,0,1.22-.06,1.82,.08h.02c.1,.03,.21,.05,.31,.09-.01-.01-.04-.02-.06-.03,.64,.14,1.32,.3,1.87,.63,.07,.04,.16,.09,.27,.15,1.02,.56,2.43,1.41,4.01,3.05,4.06,4.71,5.03,10.38,2.01,15.32-2.92,4.66-9.04,6.95-13.89,6.15-1.3-.09-5.09-1.48-5.81-4.25Z"/><path class="i" d="M215.87,589.06c-.08-.02-.16-.03-.24-.05,.08,.01,.17,.03,.24,.05Z"/></g></g><g><path class="j" d="M592.27,197.68c4.64-2.03,7.45-4.14,11.94-9.02,3.19-3.88,5.94-8.03,8.35-12.28,.75,8.04,2.23,16.08,6.43,23.04,5.07,8.26,14.06,12.47,23.41,8.79,11.23-3.83,15.06-16.13,18.21-26.43,5.17-17.26,7.99-35.22,8.21-53.23,2.36-15.68,1.63-31.53-10.04-38.28-11.94-5.53-21.45,.68-28.64,10.48-2.28-5.23-6.51-9.39-12.96-10.96-1.24-.21-2.5-.28-3.75-.23,5.7-16.04,9.79-38.18-5.18-45.2-7.36-3.16-15.44,.36-20.73,5.76-6.21,5.38-11.37,11.81-15.94,18.62,.21-2.71,.38-5.42,.48-8.13,.31-5.37,.49-10.79-.84-16.04-3.32-14.08-19.46-18.52-29.44-7.98-10.36,9.15-19.31,39.23-20.5,62.9-.07,1.41-.15,2.81-.2,4.22-.09,1.02-.09,1.72-.06,1.62v0s.01-.09,.02-.16c-.13,2.25-.26,4.5-.08,6.75,.24,2.46,.74,4.9,1.37,7.29,.03,.16,.08,.31,.12,.47,.07,.25,.11,.5,.18,.75-.02-.1-.04-.2-.06-.3,.06,.24,.11,.48,.19,.71,.16,.75,.37,1.48,.64,2.19,.04,.18,.08,.36,.11,.54,.75,2.44,2.13,3.87,3.63,5.54,.59,.78,1.23,1.5,1.99,2.09l-.08-.05s.05,.04,.08,.05c.19,.15,.4,.28,.61,.41,.54,.38,1.08,.76,1.64,1.1,3.25,2.1,8.25,4.39,14.68,2.99,.03,2.98,.42,5.94,1.42,8.84,2.06,5.39,1,2.74,2.84,6.12,1.33,2.21,3.28,3.93,5.53,5.18,4.2,2.25,9.38,1.58,13.5-.54,.74-.33,1.44-.71,2.13-1.11-.06,.33-.13,.66-.19,.99-1.69,10.38-2.88,21.31-.31,31.63,3.22,8.94,11.92,14.91,21.28,10.84Z"/><path class="r" d="M594.58,232.51c3.02-7.96-.19-18.92-10.21-18.34-.13,0-.26,.02-.39,.03-.47-.02-.94-.05-1.41-.05-.33-.02,0,.01,.37,.04-.31-.02-.62-.04-.93-.05-.16,0-.32-.01-.48-.02-.39-.03-1.01-.09-1.49-.16-3.36-.7-1.86-.07-4.31-1.45-.3-.25-.6-.52-.93-.75v.02c-.5-.43-.99-.75-1.06-.77-.12-.17-.23-.3-.32-.41-1.32-1.75-2.79-3.44-4.79-4.41-5.24-2.27-9.07,3.44-9.79,8.02-.9,4.93-.67,7.14-.2,10.07,1.19,5.64,1.5,6.21,4.84,11.45,7.37,10.94,24.26,13.26,31.1-3.22Z"/></g><g><path class="r" d="M436.7,197.56c-.15,5.75,.56,11.66,2.65,17.04,2.02,4.84,6.83,8.49,12.21,8.06,3.85-.32,7.23-2.52,10.11-4.97,2.3-2.02,4.53-4.13,6.94-6.03,3.18-2.46,6.42-4.89,9.08-7.92,10.23-11.52,8.85-23.76,.73-36-4.45-6.57-7.89-10.39-14.45-15.03-5.31-3.54-12.3-6.68-15.32-10.73-2.48-3.05-4.49-6.44-6.94-9.51-1.33-1.65-2.69-3.42-4.56-4.48-.76-.54-3.06-1.62-5.16-1.36-.31,.08-.55,.23-.73,.43-1.68,.86-2.6,3.07-2.72,4.94,0-.17-.02-.26-.04,.09-.1,1.32,0,2.64,.19,3.95,.07,.42,.09,.88,.2,1.3,0,.09,.04,.33,.14,.8,.57,3.09,.83,6.23,1.47,9.31,.72,3.51,1.82,7.37,2.98,11.35,1.5,5.14,3.84,10.33,4.62,14.31,.97,5.47,1.07,7.51,.48,11.54-.41,4.33-1.73,8.54-1.9,12.9Z"/><path class="f" d="M378.26,228.55c1.94,8.48-.15,18.63,9.12,23.24,18.07,7.95,31.32-10.62,36.67-25.63,.78-2.27,1.52-4.59,1.87-6.98,.45-3.05,.37-6.15,.62-9.22,.43-4.77,1.77-9.37,2.74-14.04,1.24-8.33-.43-13.7-2.3-21.1,.06,.14,.18,.76,.12,.32-.57-3.5-.58-5.3-.53-8.04,.22-5.84,.55-11.21-1.6-15.68-.14-.65-.34-1.29-.66-1.89-1.43-2.81-5.01-3.81-7.44-1.59-2.36,1.94-3.87,4.67-5.53,7.18-1.79,2.78-3.94,5.29-6.21,7.69-5.18,5.5-14.66,13.54-20.15,20.85-3.71,4.91-6.72,10.36-9.24,15.96-1.29,3.31-2.02,6.88-1.78,10.44,.56,6.33,3.01,12.3,4.31,18.48Z"/><path class="j" d="M441.84,120.5c.68,.87,1.77,1.27,2.75,1.7,.08,.03,.16,.05,.25,.07,.54,.27,1.14,.6,1.72,.76,.78,.45,1.54,.95,2.23,1.53,.17,.05,.73,.67,1.38,1.46,3.15,4.76,5.71,11.38,10,15.21,3.28,3.22,7.33,5.43,11.06,8.05,4.09,2.96,5.63,4.51,9.27,8.19,5.58,5.74,10.47,12.2,16.79,17.19,2.4,1.98,4.99,3.8,7.97,4.79,2.72,.9,5.69-.04,7.95-1.65,3.98-2.93,3.28-8.56,3.06-12.93-1.01-6.51-3.23-12.77-5.41-18.97-2.22-6.29-4.59-12.8-9.2-17.77-4.02-4.51-9.59-7.22-15.21-9.15-3.77-1.15-4.94-1.53-8.95-2.02-4.99-.51-10,.07-15,.15-1.73,.14-6.27-.27-7.66-.72-2.14-.53-4.26-1.19-6.46-1.48-1.7-.28-3.6-.35-5.13,.54-.03,0-.08,.03-.21,.1-1.79,.91-2.53,3.35-1.19,4.95Z"/><path class="j" d="M371.28,165.77c5.68,.65,11.58-.32,16.67-2.97,5.67-2.93,10.3-7.45,14.99-11.69,5.01-4.63,10.89-10.46,16.62-17.82,2.35-3.07,5.16-6.52,7.49-9.22,.82-.8,1.63-1.61,2.44-2.42,2.13-2.02,4.79-5.13,2.26-7.91-3.59-3.47-8.76-4.73-13.54-5.57-2.16-.23-4.08-.37-5.64-.43-6.49-.93-12.81-2.6-19.18-4.08-6.57-1.36-13.49-1.88-20.06-.27-6.2,1.7-12.79,5.11-14.92,11.61-1.99,6.46-.94,12.36-3.73,17.08-1.35,2.75-3.41,5.52-5.88,9.31-.82,1.41-1.73,2.82-2.23,4.39-.52,1.65-.62,3.39-.45,5.1,1.56,11.12,16.02,13.52,25.18,14.91Z"/></g><path class="f" d="M210.58,393.79c-6.4-6.65-13.11-10.12-20.99-10.92-10.48-.56-20.47,4.64-28.53,10.94-.86,.69-1.71,1.41-2.56,2.13,.8-2.32,1.5-4.67,2.07-7.07,2.33-9.34,2.14-19.94-3.04-28.31-8.59-13.08-23.17-16.63-37.34-10.6-4.68,1.69-8.61,4.99-11.71,8.83-2.49,2.91-4.7,6.05-6.4,9.49-3.74,7.74-4.12,16.73-2.41,25.06,.61,3.05,1.61,6.03,2.9,8.88-5.74-3.32-10.29-5.28-16.23-6.95-7.68-1.89-15.89-1.57-23.17,1.64-7.82,2.84-14.14,8.87-18.55,15.81-2.76,4.57-4.88,9.86-4.9,15.25,.14,4.12,.66,8.25,2.56,11.97-.2-.47-.4-.94-.6-1.41,1.03,2.72,2.52,5.24,4.41,7.45,2.49,2.49,5.46,4.57,8.63,6.1,2.72,1.31,5.72,1.74,8.66,2.27,7.44,1.41,15.02,1.22,22.49,.17,.92-.11,1.84-.22,2.76-.34-2.67,2.62-5.32,5.86-7.52,10.04-3.49,6.89-4.8,14.74-3.4,22.37,.74,7.03,4.4,13.47,8.96,18.75,8.15,9.98,22.09,14.1,34.13,9.09,3.94-1.33,6.96-4.21,9.41-7.49,5.24-6.18,7.43-14.23,8.38-22.14,.19-1.95,.31-3.9,.39-5.86,3.51,6.93,8.4,13.27,14.94,17.55,9.57,6.11,18,9.96,32.66,7.5,10.96-2.43,20.74-12.52,21.96-23.8,1.14-16.58-9.39-28.46-21.87-37.76,6.7-.87,13.25-2.7,19.05-6.29,6.17-3.71,11.48-9.69,12.33-17.06,1.47-8.99-1.33-18.53-7.46-25.27Z"/><path class="f" d="M851.08,400.1h0c-10.94,1.55-21.67,4.9-34.14,16.83-1.59,1.68-2.08,2.6-3.78,4.76-.02,.04-.03,.07-.05,.11-.61,.9-1.18,1.82-1.71,2.76-1.94,2.88-5.65,15.64-6.68,24.43-5.07,34.83-4.85,70.21-1.59,105.2-6.73-14.66-15.33-28.42-25.6-40.87-5.55-6.49-10.99-13.32-18.16-18.1-3.08-2.42-6.77-3.98-10.74-3.88-16.87,1.42-11.09,23.7-8.77,34.75,2.66,12.2,5.51,24.36,8.5,36.49,4.41,18.77,9.95,37.24,15.17,55.79,0,.04,0,.1,.01,.13-.15,6.55,3.84,10.15,7.19,12.54,3.95,2.12,7.44,1.95,15.34,2.33,8.58,.09,17.17-.07,25.75-.02,7.49-.04,14.99-.13,22.48-.05,5.07-.01,10.16,.42,15.17-.53,3.09-.6,5.83-1.84,8.04-3.4,2.05-.39,3.94-1.63,5.02-3.8,2.24-4.21,2.48-9.01,2.58-13.68-.04-10.42-.22-11.29-.45-20.24-.59-21.61-.67-43.25-.08-64.87,.59-23.57,1.93-47.12,1.86-70.7-.02-10.61-.07-21.24-.91-31.82-.44-4.76-1-9.52-1.86-14.23-.01-.3-.04-.6-.11-.9-.23-1.9-.6-3.83-1.52-5.53-.11-.14-.22-.28-.33-.42-.95-1.53-2.47-2.67-4.23-3.19-2.11-.52-4.3-.23-6.42,.11Z"/><path class="r" d="M141.97,423.51c-4.61-5.89-11.57-7.73-15.63-5.71-3.58,1.67-5.3,5.26-6.53,8.96-.93,3.08-1.68,6.47-.55,10.49,1.33,5.55,8.62,10.94,13.62,10.84,.83,.14,1.63,.16,2.38,.12,8.92-1.12,14.5-13.95,6.72-24.7Z"/></g></g></g></svg>